<?xml version="1.0" encoding="utf-8" standalone="no"?>
<!DOCTYPE svg PUBLIC "-//W3C//DTD SVG 1.1//EN"
  "http://www.w3.org/Graphics/SVG/1.1/DTD/svg11.dtd">
<!-- Created with matplotlib (http://matplotlib.org/) -->
<svg height="345pt" version="1.1" viewBox="0 0 460 345" width="460pt" xmlns="http://www.w3.org/2000/svg" xmlns:xlink="http://www.w3.org/1999/xlink">
 <defs>
  <style type="text/css">
*{stroke-linecap:butt;stroke-linejoin:round;}
  </style>
 </defs>
 <g id="figure_1">
  <g id="patch_1">
   <path d="M 0 345.6 
L 460.8 345.6 
L 460.8 0 
L 0 0 
z
" style="fill:#ffffff;"/>
  </g>
  <g id="axes_1">
   <g id="patch_2">
    <path d="M 57.6 307.584 
L 414.72 307.584 
L 414.72 41.472 
L 57.6 41.472 
z
" style="fill:#ffffff;"/>
   </g>
   <g id="matplotlib.axis_1">
    <g id="xtick_1">
     <g id="line2d_1">
      <defs>
       <path d="M 0 0 
L 0 3.5 
" id="m91d0db1af1" style="stroke:#000000;stroke-width:0.8;"/>
      </defs>
      <g>
       <use style="stroke:#000000;stroke-width:0.8;" x="81.789947" xlink:href="#m91d0db1af1" y="307.584"/>
      </g>
     </g>
     <g id="text_1">
      <!-- 5.0 -->
      <defs>
       <path d="M 10.796875 72.90625 
L 49.515625 72.90625 
L 49.515625 64.59375 
L 19.828125 64.59375 
L 19.828125 46.734375 
Q 21.96875 47.46875 24.109375 47.828125 
Q 26.265625 48.1875 28.421875 48.1875 
Q 40.625 48.1875 47.75 41.5 
Q 54.890625 34.8125 54.890625 23.390625 
Q 54.890625 11.625 47.5625 5.09375 
Q 40.234375 -1.421875 26.90625 -1.421875 
Q 22.3125 -1.421875 17.546875 -0.640625 
Q 12.796875 0.140625 7.71875 1.703125 
L 7.71875 11.625 
Q 12.109375 9.234375 16.796875 8.0625 
Q 21.484375 6.890625 26.703125 6.890625 
Q 35.15625 6.890625 40.078125 11.328125 
Q 45.015625 15.765625 45.015625 23.390625 
Q 45.015625 31 40.078125 35.4375 
Q 35.15625 39.890625 26.703125 39.890625 
Q 22.75 39.890625 18.8125 39.015625 
Q 14.890625 38.140625 10.796875 36.28125 
z
" id="DejaVuSans-35"/>
       <path d="M 10.6875 12.40625 
L 21 12.40625 
L 21 0 
L 10.6875 0 
z
" id="DejaVuSans-2e"/>
       <path d="M 31.78125 66.40625 
Q 24.171875 66.40625 20.328125 58.90625 
Q 16.5 51.421875 16.5 36.375 
Q 16.5 21.390625 20.328125 13.890625 
Q 24.171875 6.390625 31.78125 6.390625 
Q 39.453125 6.390625 43.28125 13.890625 
Q 47.125 21.390625 47.125 36.375 
Q 47.125 51.421875 43.28125 58.90625 
Q 39.453125 66.40625 31.78125 66.40625 
z
M 31.78125 74.21875 
Q 44.046875 74.21875 50.515625 64.515625 
Q 56.984375 54.828125 56.984375 36.375 
Q 56.984375 17.96875 50.515625 8.265625 
Q 44.046875 -1.421875 31.78125 -1.421875 
Q 19.53125 -1.421875 13.0625 8.265625 
Q 6.59375 17.96875 6.59375 36.375 
Q 6.59375 54.828125 13.0625 64.515625 
Q 19.53125 74.21875 31.78125 74.21875 
z
" id="DejaVuSans-30"/>
      </defs>
      <g transform="translate(73.838384 322.182437)scale(0.1 -0.1)">
       <use xlink:href="#DejaVuSans-35"/>
       <use x="63.623047" xlink:href="#DejaVuSans-2e"/>
       <use x="95.410156" xlink:href="#DejaVuSans-30"/>
      </g>
     </g>
    </g>
    <g id="xtick_2">
     <g id="line2d_2">
      <g>
       <use style="stroke:#000000;stroke-width:0.8;" x="121.576043" xlink:href="#m91d0db1af1" y="307.584"/>
      </g>
     </g>
     <g id="text_2">
      <!-- 7.5 -->
      <defs>
       <path d="M 8.203125 72.90625 
L 55.078125 72.90625 
L 55.078125 68.703125 
L 28.609375 0 
L 18.3125 0 
L 43.21875 64.59375 
L 8.203125 64.59375 
z
" id="DejaVuSans-37"/>
      </defs>
      <g transform="translate(113.62448 322.182437)scale(0.1 -0.1)">
       <use xlink:href="#DejaVuSans-37"/>
       <use x="63.623047" xlink:href="#DejaVuSans-2e"/>
       <use x="95.410156" xlink:href="#DejaVuSans-35"/>
      </g>
     </g>
    </g>
    <g id="xtick_3">
     <g id="line2d_3">
      <g>
       <use style="stroke:#000000;stroke-width:0.8;" x="161.362139" xlink:href="#m91d0db1af1" y="307.584"/>
      </g>
     </g>
     <g id="text_3">
      <!-- 10.0 -->
      <defs>
       <path d="M 12.40625 8.296875 
L 28.515625 8.296875 
L 28.515625 63.921875 
L 10.984375 60.40625 
L 10.984375 69.390625 
L 28.421875 72.90625 
L 38.28125 72.90625 
L 38.28125 8.296875 
L 54.390625 8.296875 
L 54.390625 0 
L 12.40625 0 
z
" id="DejaVuSans-31"/>
      </defs>
      <g transform="translate(150.229327 322.182437)scale(0.1 -0.1)">
       <use xlink:href="#DejaVuSans-31"/>
       <use x="63.623047" xlink:href="#DejaVuSans-30"/>
       <use x="127.246094" xlink:href="#DejaVuSans-2e"/>
       <use x="159.033203" xlink:href="#DejaVuSans-30"/>
      </g>
     </g>
    </g>
    <g id="xtick_4">
     <g id="line2d_4">
      <g>
       <use style="stroke:#000000;stroke-width:0.8;" x="201.148235" xlink:href="#m91d0db1af1" y="307.584"/>
      </g>
     </g>
     <g id="text_4">
      <!-- 12.5 -->
      <defs>
       <path d="M 19.1875 8.296875 
L 53.609375 8.296875 
L 53.609375 0 
L 7.328125 0 
L 7.328125 8.296875 
Q 12.9375 14.109375 22.625 23.890625 
Q 32.328125 33.6875 34.8125 36.53125 
Q 39.546875 41.84375 41.421875 45.53125 
Q 43.3125 49.21875 43.3125 52.78125 
Q 43.3125 58.59375 39.234375 62.25 
Q 35.15625 65.921875 28.609375 65.921875 
Q 23.96875 65.921875 18.8125 64.3125 
Q 13.671875 62.703125 7.8125 59.421875 
L 7.8125 69.390625 
Q 13.765625 71.78125 18.9375 73 
Q 24.125 74.21875 28.421875 74.21875 
Q 39.75 74.21875 46.484375 68.546875 
Q 53.21875 62.890625 53.21875 53.421875 
Q 53.21875 48.921875 51.53125 44.890625 
Q 49.859375 40.875 45.40625 35.40625 
Q 44.1875 33.984375 37.640625 27.21875 
Q 31.109375 20.453125 19.1875 8.296875 
z
" id="DejaVuSans-32"/>
      </defs>
      <g transform="translate(190.015423 322.182437)scale(0.1 -0.1)">
       <use xlink:href="#DejaVuSans-31"/>
       <use x="63.623047" xlink:href="#DejaVuSans-32"/>
       <use x="127.246094" xlink:href="#DejaVuSans-2e"/>
       <use x="159.033203" xlink:href="#DejaVuSans-35"/>
      </g>
     </g>
    </g>
    <g id="xtick_5">
     <g id="line2d_5">
      <g>
       <use style="stroke:#000000;stroke-width:0.8;" x="240.934332" xlink:href="#m91d0db1af1" y="307.584"/>
      </g>
     </g>
     <g id="text_5">
      <!-- 15.0 -->
      <g transform="translate(229.801519 322.182437)scale(0.1 -0.1)">
       <use xlink:href="#DejaVuSans-31"/>
       <use x="63.623047" xlink:href="#DejaVuSans-35"/>
       <use x="127.246094" xlink:href="#DejaVuSans-2e"/>
       <use x="159.033203" xlink:href="#DejaVuSans-30"/>
      </g>
     </g>
    </g>
    <g id="xtick_6">
     <g id="line2d_6">
      <g>
       <use style="stroke:#000000;stroke-width:0.8;" x="280.720428" xlink:href="#m91d0db1af1" y="307.584"/>
      </g>
     </g>
     <g id="text_6">
      <!-- 17.5 -->
      <g transform="translate(269.587615 322.182437)scale(0.1 -0.1)">
       <use xlink:href="#DejaVuSans-31"/>
       <use x="63.623047" xlink:href="#DejaVuSans-37"/>
       <use x="127.246094" xlink:href="#DejaVuSans-2e"/>
       <use x="159.033203" xlink:href="#DejaVuSans-35"/>
      </g>
     </g>
    </g>
    <g id="xtick_7">
     <g id="line2d_7">
      <g>
       <use style="stroke:#000000;stroke-width:0.8;" x="320.506524" xlink:href="#m91d0db1af1" y="307.584"/>
      </g>
     </g>
     <g id="text_7">
      <!-- 20.0 -->
      <g transform="translate(309.373712 322.182437)scale(0.1 -0.1)">
       <use xlink:href="#DejaVuSans-32"/>
       <use x="63.623047" xlink:href="#DejaVuSans-30"/>
       <use x="127.246094" xlink:href="#DejaVuSans-2e"/>
       <use x="159.033203" xlink:href="#DejaVuSans-30"/>
      </g>
     </g>
    </g>
    <g id="xtick_8">
     <g id="line2d_8">
      <g>
       <use style="stroke:#000000;stroke-width:0.8;" x="360.29262" xlink:href="#m91d0db1af1" y="307.584"/>
      </g>
     </g>
     <g id="text_8">
      <!-- 22.5 -->
      <g transform="translate(349.159808 322.182437)scale(0.1 -0.1)">
       <use xlink:href="#DejaVuSans-32"/>
       <use x="63.623047" xlink:href="#DejaVuSans-32"/>
       <use x="127.246094" xlink:href="#DejaVuSans-2e"/>
       <use x="159.033203" xlink:href="#DejaVuSans-35"/>
      </g>
     </g>
    </g>
    <g id="xtick_9">
     <g id="line2d_9">
      <g>
       <use style="stroke:#000000;stroke-width:0.8;" x="400.078717" xlink:href="#m91d0db1af1" y="307.584"/>
      </g>
     </g>
     <g id="text_9">
      <!-- 25.0 -->
      <g transform="translate(388.945904 322.182437)scale(0.1 -0.1)">
       <use xlink:href="#DejaVuSans-32"/>
       <use x="63.623047" xlink:href="#DejaVuSans-35"/>
       <use x="127.246094" xlink:href="#DejaVuSans-2e"/>
       <use x="159.033203" xlink:href="#DejaVuSans-30"/>
      </g>
     </g>
    </g>
    <g id="text_10">
     <!-- x -->
     <defs>
      <path d="M 54.890625 54.6875 
L 35.109375 28.078125 
L 55.90625 0 
L 45.3125 0 
L 29.390625 21.484375 
L 13.484375 0 
L 2.875 0 
L 24.125 28.609375 
L 4.6875 54.6875 
L 15.28125 54.6875 
L 29.78125 35.203125 
L 44.28125 54.6875 
z
" id="DejaVuSans-78"/>
     </defs>
     <g transform="translate(233.200625 335.860562)scale(0.1 -0.1)">
      <use xlink:href="#DejaVuSans-78"/>
     </g>
    </g>
   </g>
   <g id="matplotlib.axis_2">
    <g id="ytick_1">
     <g id="line2d_10">
      <defs>
       <path d="M 0 0 
L -3.5 0 
" id="mcf9b954eed" style="stroke:#000000;stroke-width:0.8;"/>
      </defs>
      <g>
       <use style="stroke:#000000;stroke-width:0.8;" x="57.6" xlink:href="#mcf9b954eed" y="272.726267"/>
      </g>
     </g>
     <g id="text_11">
      <!-- 0 -->
      <g transform="translate(44.2375 276.525485)scale(0.1 -0.1)">
       <use xlink:href="#DejaVuSans-30"/>
      </g>
     </g>
    </g>
    <g id="ytick_2">
     <g id="line2d_11">
      <g>
       <use style="stroke:#000000;stroke-width:0.8;" x="57.6" xlink:href="#mcf9b954eed" y="230.271435"/>
      </g>
     </g>
     <g id="text_12">
      <!-- 5 -->
      <g transform="translate(44.2375 234.070654)scale(0.1 -0.1)">
       <use xlink:href="#DejaVuSans-35"/>
      </g>
     </g>
    </g>
    <g id="ytick_3">
     <g id="line2d_12">
      <g>
       <use style="stroke:#000000;stroke-width:0.8;" x="57.6" xlink:href="#mcf9b954eed" y="187.816604"/>
      </g>
     </g>
     <g id="text_13">
      <!-- 10 -->
      <g transform="translate(37.875 191.615822)scale(0.1 -0.1)">
       <use xlink:href="#DejaVuSans-31"/>
       <use x="63.623047" xlink:href="#DejaVuSans-30"/>
      </g>
     </g>
    </g>
    <g id="ytick_4">
     <g id="line2d_13">
      <g>
       <use style="stroke:#000000;stroke-width:0.8;" x="57.6" xlink:href="#mcf9b954eed" y="145.361772"/>
      </g>
     </g>
     <g id="text_14">
      <!-- 15 -->
      <g transform="translate(37.875 149.160991)scale(0.1 -0.1)">
       <use xlink:href="#DejaVuSans-31"/>
       <use x="63.623047" xlink:href="#DejaVuSans-35"/>
      </g>
     </g>
    </g>
    <g id="ytick_5">
     <g id="line2d_14">
      <g>
       <use style="stroke:#000000;stroke-width:0.8;" x="57.6" xlink:href="#mcf9b954eed" y="102.906941"/>
      </g>
     </g>
     <g id="text_15">
      <!-- 20 -->
      <g transform="translate(37.875 106.706159)scale(0.1 -0.1)">
       <use xlink:href="#DejaVuSans-32"/>
       <use x="63.623047" xlink:href="#DejaVuSans-30"/>
      </g>
     </g>
    </g>
    <g id="ytick_6">
     <g id="line2d_15">
      <g>
       <use style="stroke:#000000;stroke-width:0.8;" x="57.6" xlink:href="#mcf9b954eed" y="60.452109"/>
      </g>
     </g>
     <g id="text_16">
      <!-- 25 -->
      <g transform="translate(37.875 64.251328)scale(0.1 -0.1)">
       <use xlink:href="#DejaVuSans-32"/>
       <use x="63.623047" xlink:href="#DejaVuSans-35"/>
      </g>
     </g>
    </g>
    <g id="text_17">
     <!-- y -->
     <defs>
      <path d="M 32.171875 -5.078125 
Q 28.375 -14.84375 24.75 -17.8125 
Q 21.140625 -20.796875 15.09375 -20.796875 
L 7.90625 -20.796875 
L 7.90625 -13.28125 
L 13.1875 -13.28125 
Q 16.890625 -13.28125 18.9375 -11.515625 
Q 21 -9.765625 23.484375 -3.21875 
L 25.09375 0.875 
L 2.984375 54.6875 
L 12.5 54.6875 
L 29.59375 11.921875 
L 46.6875 54.6875 
L 56.203125 54.6875 
z
" id="DejaVuSans-79"/>
     </defs>
     <g transform="translate(31.795313 177.487375)rotate(-90)scale(0.1 -0.1)">
      <use xlink:href="#DejaVuSans-79"/>
     </g>
    </g>
   </g>
   <g id="line2d_16">
    <defs>
     <path d="M 0 3 
C 0.795609 3 1.55874 2.683901 2.12132 2.12132 
C 2.683901 1.55874 3 0.795609 3 0 
C 3 -0.795609 2.683901 -1.55874 2.12132 -2.12132 
C 1.55874 -2.683901 0.795609 -3 0 -3 
C -0.795609 -3 -1.55874 -2.683901 -2.12132 -2.12132 
C -2.683901 -1.55874 -3 -0.795609 -3 0 
C -3 0.795609 -2.683901 1.55874 -2.12132 2.12132 
C -1.55874 2.683901 -0.795609 3 0 3 
z
" id="m7d96e1d9b9" style="stroke:#ff0000;"/>
    </defs>
    <g clip-path="url(#p02bf7a7830)">
     <use style="fill:#ff0000;stroke:#ff0000;" x="99.456565" xlink:href="#m7d96e1d9b9" y="123.353188"/>
     <use style="fill:#ff0000;stroke:#ff0000;" x="90.187996" xlink:href="#m7d96e1d9b9" y="195.202046"/>
     <use style="fill:#ff0000;stroke:#ff0000;" x="137.78649" xlink:href="#m7d96e1d9b9" y="156.722685"/>
     <use style="fill:#ff0000;stroke:#ff0000;" x="113.66975" xlink:href="#m7d96e1d9b9" y="172.074352"/>
     <use style="fill:#ff0000;stroke:#ff0000;" x="95.473181" xlink:href="#m7d96e1d9b9" y="214.789856"/>
     <use style="fill:#ff0000;stroke:#ff0000;" x="135.626901" xlink:href="#m7d96e1d9b9" y="171.802641"/>
     <use style="fill:#ff0000;stroke:#ff0000;" x="121.200462" xlink:href="#m7d96e1d9b9" y="235.804998"/>
     <use style="fill:#ff0000;stroke:#ff0000;" x="138.733399" xlink:href="#m7d96e1d9b9" y="170.834671"/>
     <use style="fill:#ff0000;stroke:#ff0000;" x="105.441985" xlink:href="#m7d96e1d9b9" y="216.696927"/>
     <use style="fill:#ff0000;stroke:#ff0000;" x="82.658875" xlink:href="#m7d96e1d9b9" y="240.319645"/>
     <use style="fill:#ff0000;stroke:#ff0000;" x="93.100338" xlink:href="#m7d96e1d9b9" y="245.111946"/>
     <use style="fill:#ff0000;stroke:#ff0000;" x="227.629861" xlink:href="#m7d96e1d9b9" y="141.073834"/>
     <use style="fill:#ff0000;stroke:#ff0000;" x="93.471144" xlink:href="#m7d96e1d9b9" y="245.936419"/>
     <use style="fill:#ff0000;stroke:#ff0000;" x="136.032719" xlink:href="#m7d96e1d9b9" y="211.372242"/>
     <use style="fill:#ff0000;stroke:#ff0000;" x="91.986327" xlink:href="#m7d96e1d9b9" y="266.645206"/>
     <use style="fill:#ff0000;stroke:#ff0000;" x="87.827884" xlink:href="#m7d96e1d9b9" y="242.898351"/>
     <use style="fill:#ff0000;stroke:#ff0000;" x="103.519521" xlink:href="#m7d96e1d9b9" y="227.683389"/>
     <use style="fill:#ff0000;stroke:#ff0000;" x="83.860415" xlink:href="#m7d96e1d9b9" y="267.964787"/>
     <use style="fill:#ff0000;stroke:#ff0000;" x="104.541228" xlink:href="#m7d96e1d9b9" y="241.718956"/>
     <use style="fill:#ff0000;stroke:#ff0000;" x="114.745566" xlink:href="#m7d96e1d9b9" y="226.965902"/>
     <use style="fill:#ff0000;stroke:#ff0000;" x="100.713805" xlink:href="#m7d96e1d9b9" y="246.07652"/>
     <use style="fill:#ff0000;stroke:#ff0000;" x="324.803422" xlink:href="#m7d96e1d9b9" y="87.903403"/>
     <use style="fill:#ff0000;stroke:#ff0000;" x="89.589613" xlink:href="#m7d96e1d9b9" y="236.529277"/>
     <use style="fill:#ff0000;stroke:#ff0000;" x="102.894083" xlink:href="#m7d96e1d9b9" y="228.679379"/>
     <use style="fill:#ff0000;stroke:#ff0000;" x="90.780013" xlink:href="#m7d96e1d9b9" y="246.552863"/>
     <use style="fill:#ff0000;stroke:#ff0000;" x="303.716791" xlink:href="#m7d96e1d9b9" y="80.507772"/>
     <use style="fill:#ff0000;stroke:#ff0000;" x="206.368171" xlink:href="#m7d96e1d9b9" y="158.089731"/>
     <use style="fill:#ff0000;stroke:#ff0000;" x="176.592257" xlink:href="#m7d96e1d9b9" y="212.892974"/>
     <use style="fill:#ff0000;stroke:#ff0000;" x="211.906396" xlink:href="#m7d96e1d9b9" y="147.97699"/>
     <use style="fill:#ff0000;stroke:#ff0000;" x="355.566032" xlink:href="#m7d96e1d9b9" y="67.694903"/>
     <use style="fill:#ff0000;stroke:#ff0000;" x="85.806751" xlink:href="#m7d96e1d9b9" y="283.085246"/>
     <use style="fill:#ff0000;stroke:#ff0000;" x="107.084355" xlink:href="#m7d96e1d9b9" y="221.809338"/>
     <use style="fill:#ff0000;stroke:#ff0000;" x="149.397664" xlink:href="#m7d96e1d9b9" y="169.696882"/>
     <use style="fill:#ff0000;stroke:#ff0000;" x="95.982443" xlink:href="#m7d96e1d9b9" y="257.022224"/>
     <use style="fill:#ff0000;stroke:#ff0000;" x="132.8928" xlink:href="#m7d96e1d9b9" y="217.173271"/>
     <use style="fill:#ff0000;stroke:#ff0000;" x="128.47336" xlink:href="#m7d96e1d9b9" y="233.987931"/>
     <use style="fill:#ff0000;stroke:#ff0000;" x="131.059457" xlink:href="#m7d96e1d9b9" y="237.774053"/>
     <use style="fill:#ff0000;stroke:#ff0000;" x="91.438871" xlink:href="#m7d96e1d9b9" y="243.918116"/>
     <use style="fill:#ff0000;stroke:#ff0000;" x="206.495487" xlink:href="#m7d96e1d9b9" y="186.823161"/>
     <use style="fill:#ff0000;stroke:#ff0000;" x="103.328548" xlink:href="#m7d96e1d9b9" y="226.048029"/>
     <use style="fill:#ff0000;stroke:#ff0000;" x="88.265532" xlink:href="#m7d96e1d9b9" y="268.00045"/>
     <use style="fill:#ff0000;stroke:#ff0000;" x="111.748877" xlink:href="#m7d96e1d9b9" y="239.513852"/>
     <use style="fill:#ff0000;stroke:#ff0000;" x="188.544" xlink:href="#m7d96e1d9b9" y="226.999017"/>
     <use style="fill:#ff0000;stroke:#ff0000;" x="94.102948" xlink:href="#m7d96e1d9b9" y="252.003214"/>
     <use style="fill:#ff0000;stroke:#ff0000;" x="126.743461" xlink:href="#m7d96e1d9b9" y="215.56678"/>
     <use style="fill:#ff0000;stroke:#ff0000;" x="115.100458" xlink:href="#m7d96e1d9b9" y="263.842169"/>
     <use style="fill:#ff0000;stroke:#ff0000;" x="82.90714" xlink:href="#m7d96e1d9b9" y="229.136193"/>
     <use style="fill:#ff0000;stroke:#ff0000;" x="94.543778" xlink:href="#m7d96e1d9b9" y="257.068925"/>
     <use style="fill:#ff0000;stroke:#ff0000;" x="188.416684" xlink:href="#m7d96e1d9b9" y="204.762025"/>
     <use style="fill:#ff0000;stroke:#ff0000;" x="90.409206" xlink:href="#m7d96e1d9b9" y="264.083312"/>
     <use style="fill:#ff0000;stroke:#ff0000;" x="122.215803" xlink:href="#m7d96e1d9b9" y="215.408848"/>
     <use style="fill:#ff0000;stroke:#ff0000;" x="86.686819" xlink:href="#m7d96e1d9b9" y="257.106285"/>
     <use style="fill:#ff0000;stroke:#ff0000;" x="120.364954" xlink:href="#m7d96e1d9b9" y="236.312758"/>
     <use style="fill:#ff0000;stroke:#ff0000;" x="123.216821" xlink:href="#m7d96e1d9b9" y="230.287568"/>
     <use style="fill:#ff0000;stroke:#ff0000;" x="103.00071" xlink:href="#m7d96e1d9b9" y="260.641074"/>
     <use style="fill:#ff0000;stroke:#ff0000;" x="103.416077" xlink:href="#m7d96e1d9b9" y="284.792779"/>
     <use style="fill:#ff0000;stroke:#ff0000;" x="102.068124" xlink:href="#m7d96e1d9b9" y="251.70603"/>
     <use style="fill:#ff0000;stroke:#ff0000;" x="91.970413" xlink:href="#m7d96e1d9b9" y="233.63216"/>
     <use style="fill:#ff0000;stroke:#ff0000;" x="150.384359" xlink:href="#m7d96e1d9b9" y="239.081662"/>
     <use style="fill:#ff0000;stroke:#ff0000;" x="152.66649" xlink:href="#m7d96e1d9b9" y="226.755326"/>
     <use style="fill:#ff0000;stroke:#ff0000;" x="142.66904" xlink:href="#m7d96e1d9b9" y="228.833065"/>
     <use style="fill:#ff0000;stroke:#ff0000;" x="84.643405" xlink:href="#m7d96e1d9b9" y="279.033272"/>
     <use style="fill:#ff0000;stroke:#ff0000;" x="340.861091" xlink:href="#m7d96e1d9b9" y="120.491732"/>
     <use style="fill:#ff0000;stroke:#ff0000;" x="239.470203" xlink:href="#m7d96e1d9b9" y="170.376159"/>
     <use style="fill:#ff0000;stroke:#ff0000;" x="303.939594" xlink:href="#m7d96e1d9b9" y="127.921327"/>
     <use style="fill:#ff0000;stroke:#ff0000;" x="117.091354" xlink:href="#m7d96e1d9b9" y="231.246198"/>
     <use style="fill:#ff0000;stroke:#ff0000;" x="134.229613" xlink:href="#m7d96e1d9b9" y="223.952458"/>
     <use style="fill:#ff0000;stroke:#ff0000;" x="165.117947" xlink:href="#m7d96e1d9b9" y="206.705607"/>
     <use style="fill:#ff0000;stroke:#ff0000;" x="89.737617" xlink:href="#m7d96e1d9b9" y="264.088407"/>
     <use style="fill:#ff0000;stroke:#ff0000;" x="325.933348" xlink:href="#m7d96e1d9b9" y="94.483902"/>
     <use style="fill:#ff0000;stroke:#ff0000;" x="163.526503" xlink:href="#m7d96e1d9b9" y="216.007461"/>
     <use style="fill:#ff0000;stroke:#ff0000;" x="118.942203" xlink:href="#m7d96e1d9b9" y="238.542485"/>
     <use style="fill:#ff0000;stroke:#ff0000;" x="97.803055" xlink:href="#m7d96e1d9b9" y="261.871415"/>
     <use style="fill:#ff0000;stroke:#ff0000;" x="117.213895" xlink:href="#m7d96e1d9b9" y="244.357099"/>
     <use style="fill:#ff0000;stroke:#ff0000;" x="82.218045" xlink:href="#m7d96e1d9b9" y="295.488"/>
     <use style="fill:#ff0000;stroke:#ff0000;" x="106.423906" xlink:href="#m7d96e1d9b9" y="270.206318"/>
     <use style="fill:#ff0000;stroke:#ff0000;" x="122.19034" xlink:href="#m7d96e1d9b9" y="239.743108"/>
     <use style="fill:#ff0000;stroke:#ff0000;" x="82.370824" xlink:href="#m7d96e1d9b9" y="224.315871"/>
     <use style="fill:#ff0000;stroke:#ff0000;" x="165.722695" xlink:href="#m7d96e1d9b9" y="215.390168"/>
     <use style="fill:#ff0000;stroke:#ff0000;" x="83.503932" xlink:href="#m7d96e1d9b9" y="255.255254"/>
     <use style="fill:#ff0000;stroke:#ff0000;" x="93.394755" xlink:href="#m7d96e1d9b9" y="268.654594"/>
     <use style="fill:#ff0000;stroke:#ff0000;" x="84.788227" xlink:href="#m7d96e1d9b9" y="270.992326"/>
     <use style="fill:#ff0000;stroke:#ff0000;" x="103.365151" xlink:href="#m7d96e1d9b9" y="266.964212"/>
     <use style="fill:#ff0000;stroke:#ff0000;" x="157.681129" xlink:href="#m7d96e1d9b9" y="208.674662"/>
     <use style="fill:#ff0000;stroke:#ff0000;" x="105.914644" xlink:href="#m7d96e1d9b9" y="227.353939"/>
     <use style="fill:#ff0000;stroke:#ff0000;" x="137.76421" xlink:href="#m7d96e1d9b9" y="236.711833"/>
     <use style="fill:#ff0000;stroke:#ff0000;" x="148.315482" xlink:href="#m7d96e1d9b9" y="215.003829"/>
     <use style="fill:#ff0000;stroke:#ff0000;" x="97.736214" xlink:href="#m7d96e1d9b9" y="264.855565"/>
     <use style="fill:#ff0000;stroke:#ff0000;" x="90.07182" xlink:href="#m7d96e1d9b9" y="271.43564"/>
     <use style="fill:#ff0000;stroke:#ff0000;" x="82.735264" xlink:href="#m7d96e1d9b9" y="248.769854"/>
     <use style="fill:#ff0000;stroke:#ff0000;" x="93.052595" xlink:href="#m7d96e1d9b9" y="257.059585"/>
     <use style="fill:#ff0000;stroke:#ff0000;" x="123.749955" xlink:href="#m7d96e1d9b9" y="236.249925"/>
     <use style="fill:#ff0000;stroke:#ff0000;" x="95.646648" xlink:href="#m7d96e1d9b9" y="211.566685"/>
     <use style="fill:#ff0000;stroke:#ff0000;" x="86.650216" xlink:href="#m7d96e1d9b9" y="255.855566"/>
     <use style="fill:#ff0000;stroke:#ff0000;" x="134.202558" xlink:href="#m7d96e1d9b9" y="271.498982"/>
     <use style="fill:#ff0000;stroke:#ff0000;" x="215.375743" xlink:href="#m7d96e1d9b9" y="195.839718"/>
     <use style="fill:#ff0000;stroke:#ff0000;" x="88.742965" xlink:href="#m7d96e1d9b9" y="267.486916"/>
    </g>
   </g>
   <g id="line2d_17">
    <path clip-path="url(#p02bf7a7830)" d="M 73.832727 260.220173 
L 398.487273 53.568 
L 398.487273 53.568 
" style="fill:none;stroke:#1f77b4;stroke-linecap:square;stroke-width:1.5;"/>
   </g>
   <g id="patch_3">
    <path d="M 57.6 307.584 
L 57.6 41.472 
" style="fill:none;stroke:#000000;stroke-linecap:square;stroke-linejoin:miter;stroke-width:0.8;"/>
   </g>
   <g id="patch_4">
    <path d="M 414.72 307.584 
L 414.72 41.472 
" style="fill:none;stroke:#000000;stroke-linecap:square;stroke-linejoin:miter;stroke-width:0.8;"/>
   </g>
   <g id="patch_5">
    <path d="M 57.6 307.584 
L 414.72 307.584 
" style="fill:none;stroke:#000000;stroke-linecap:square;stroke-linejoin:miter;stroke-width:0.8;"/>
   </g>
   <g id="patch_6">
    <path d="M 57.6 41.472 
L 414.72 41.472 
" style="fill:none;stroke:#000000;stroke-linecap:square;stroke-linejoin:miter;stroke-width:0.8;"/>
   </g>
  </g>
 </g>
 <defs>
  <clipPath id="p02bf7a7830">
   <rect height="266.112" width="357.12" x="57.6" y="41.472"/>
  </clipPath>
 </defs>
</svg>
