<?xml version="1.0" encoding="utf-8" standalone="no"?>
<!DOCTYPE svg PUBLIC "-//W3C//DTD SVG 1.1//EN"
  "http://www.w3.org/Graphics/SVG/1.1/DTD/svg11.dtd">
<!-- Created with matplotlib (http://matplotlib.org/) -->
<svg height="345pt" version="1.1" viewBox="0 0 460 345" width="460pt" xmlns="http://www.w3.org/2000/svg" xmlns:xlink="http://www.w3.org/1999/xlink">
 <defs>
  <style type="text/css">
*{stroke-linecap:butt;stroke-linejoin:round;}
  </style>
 </defs>
 <g id="figure_1">
  <g id="patch_1">
   <path d="M 0 345.6 
L 460.8 345.6 
L 460.8 0 
L 0 0 
z
" style="fill:#ffffff;"/>
  </g>
  <g id="axes_1">
   <g id="patch_2">
    <path d="M 57.6 307.584 
L 414.72 307.584 
L 414.72 41.472 
L 57.6 41.472 
z
" style="fill:#ffffff;"/>
   </g>
   <g id="matplotlib.axis_1">
    <g id="xtick_1">
     <g id="line2d_1">
      <defs>
       <path d="M 0 0 
L 0 3.5 
" id="m29ceca4e2f" style="stroke:#000000;stroke-width:0.8;"/>
      </defs>
      <g>
       <use style="stroke:#000000;stroke-width:0.8;" x="73.832727" xlink:href="#m29ceca4e2f" y="307.584"/>
      </g>
     </g>
     <g id="text_1">
      <!-- 0 -->
      <defs>
       <path d="M 31.78125 66.40625 
Q 24.171875 66.40625 20.328125 58.90625 
Q 16.5 51.421875 16.5 36.375 
Q 16.5 21.390625 20.328125 13.890625 
Q 24.171875 6.390625 31.78125 6.390625 
Q 39.453125 6.390625 43.28125 13.890625 
Q 47.125 21.390625 47.125 36.375 
Q 47.125 51.421875 43.28125 58.90625 
Q 39.453125 66.40625 31.78125 66.40625 
z
M 31.78125 74.21875 
Q 44.046875 74.21875 50.515625 64.515625 
Q 56.984375 54.828125 56.984375 36.375 
Q 56.984375 17.96875 50.515625 8.265625 
Q 44.046875 -1.421875 31.78125 -1.421875 
Q 19.53125 -1.421875 13.0625 8.265625 
Q 6.59375 17.96875 6.59375 36.375 
Q 6.59375 54.828125 13.0625 64.515625 
Q 19.53125 74.21875 31.78125 74.21875 
z
" id="DejaVuSans-30"/>
      </defs>
      <g transform="translate(70.651477 322.182437)scale(0.1 -0.1)">
       <use xlink:href="#DejaVuSans-30"/>
      </g>
     </g>
    </g>
    <g id="xtick_2">
     <g id="line2d_2">
      <g>
       <use style="stroke:#000000;stroke-width:0.8;" x="121.51994" xlink:href="#m29ceca4e2f" y="307.584"/>
      </g>
     </g>
     <g id="text_2">
      <!-- 250 -->
      <defs>
       <path d="M 19.1875 8.296875 
L 53.609375 8.296875 
L 53.609375 0 
L 7.328125 0 
L 7.328125 8.296875 
Q 12.9375 14.109375 22.625 23.890625 
Q 32.328125 33.6875 34.8125 36.53125 
Q 39.546875 41.84375 41.421875 45.53125 
Q 43.3125 49.21875 43.3125 52.78125 
Q 43.3125 58.59375 39.234375 62.25 
Q 35.15625 65.921875 28.609375 65.921875 
Q 23.96875 65.921875 18.8125 64.3125 
Q 13.671875 62.703125 7.8125 59.421875 
L 7.8125 69.390625 
Q 13.765625 71.78125 18.9375 73 
Q 24.125 74.21875 28.421875 74.21875 
Q 39.75 74.21875 46.484375 68.546875 
Q 53.21875 62.890625 53.21875 53.421875 
Q 53.21875 48.921875 51.53125 44.890625 
Q 49.859375 40.875 45.40625 35.40625 
Q 44.1875 33.984375 37.640625 27.21875 
Q 31.109375 20.453125 19.1875 8.296875 
z
" id="DejaVuSans-32"/>
       <path d="M 10.796875 72.90625 
L 49.515625 72.90625 
L 49.515625 64.59375 
L 19.828125 64.59375 
L 19.828125 46.734375 
Q 21.96875 47.46875 24.109375 47.828125 
Q 26.265625 48.1875 28.421875 48.1875 
Q 40.625 48.1875 47.75 41.5 
Q 54.890625 34.8125 54.890625 23.390625 
Q 54.890625 11.625 47.5625 5.09375 
Q 40.234375 -1.421875 26.90625 -1.421875 
Q 22.3125 -1.421875 17.546875 -0.640625 
Q 12.796875 0.140625 7.71875 1.703125 
L 7.71875 11.625 
Q 12.109375 9.234375 16.796875 8.0625 
Q 21.484375 6.890625 26.703125 6.890625 
Q 35.15625 6.890625 40.078125 11.328125 
Q 45.015625 15.765625 45.015625 23.390625 
Q 45.015625 31 40.078125 35.4375 
Q 35.15625 39.890625 26.703125 39.890625 
Q 22.75 39.890625 18.8125 39.015625 
Q 14.890625 38.140625 10.796875 36.28125 
z
" id="DejaVuSans-35"/>
      </defs>
      <g transform="translate(111.97619 322.182437)scale(0.1 -0.1)">
       <use xlink:href="#DejaVuSans-32"/>
       <use x="63.623047" xlink:href="#DejaVuSans-35"/>
       <use x="127.246094" xlink:href="#DejaVuSans-30"/>
      </g>
     </g>
    </g>
    <g id="xtick_3">
     <g id="line2d_3">
      <g>
       <use style="stroke:#000000;stroke-width:0.8;" x="169.207153" xlink:href="#m29ceca4e2f" y="307.584"/>
      </g>
     </g>
     <g id="text_3">
      <!-- 500 -->
      <g transform="translate(159.663403 322.182437)scale(0.1 -0.1)">
       <use xlink:href="#DejaVuSans-35"/>
       <use x="63.623047" xlink:href="#DejaVuSans-30"/>
       <use x="127.246094" xlink:href="#DejaVuSans-30"/>
      </g>
     </g>
    </g>
    <g id="xtick_4">
     <g id="line2d_4">
      <g>
       <use style="stroke:#000000;stroke-width:0.8;" x="216.894366" xlink:href="#m29ceca4e2f" y="307.584"/>
      </g>
     </g>
     <g id="text_4">
      <!-- 750 -->
      <defs>
       <path d="M 8.203125 72.90625 
L 55.078125 72.90625 
L 55.078125 68.703125 
L 28.609375 0 
L 18.3125 0 
L 43.21875 64.59375 
L 8.203125 64.59375 
z
" id="DejaVuSans-37"/>
      </defs>
      <g transform="translate(207.350616 322.182437)scale(0.1 -0.1)">
       <use xlink:href="#DejaVuSans-37"/>
       <use x="63.623047" xlink:href="#DejaVuSans-35"/>
       <use x="127.246094" xlink:href="#DejaVuSans-30"/>
      </g>
     </g>
    </g>
    <g id="xtick_5">
     <g id="line2d_5">
      <g>
       <use style="stroke:#000000;stroke-width:0.8;" x="264.581579" xlink:href="#m29ceca4e2f" y="307.584"/>
      </g>
     </g>
     <g id="text_5">
      <!-- 1000 -->
      <defs>
       <path d="M 12.40625 8.296875 
L 28.515625 8.296875 
L 28.515625 63.921875 
L 10.984375 60.40625 
L 10.984375 69.390625 
L 28.421875 72.90625 
L 38.28125 72.90625 
L 38.28125 8.296875 
L 54.390625 8.296875 
L 54.390625 0 
L 12.40625 0 
z
" id="DejaVuSans-31"/>
      </defs>
      <g transform="translate(251.856579 322.182437)scale(0.1 -0.1)">
       <use xlink:href="#DejaVuSans-31"/>
       <use x="63.623047" xlink:href="#DejaVuSans-30"/>
       <use x="127.246094" xlink:href="#DejaVuSans-30"/>
       <use x="190.869141" xlink:href="#DejaVuSans-30"/>
      </g>
     </g>
    </g>
    <g id="xtick_6">
     <g id="line2d_6">
      <g>
       <use style="stroke:#000000;stroke-width:0.8;" x="312.268792" xlink:href="#m29ceca4e2f" y="307.584"/>
      </g>
     </g>
     <g id="text_6">
      <!-- 1250 -->
      <g transform="translate(299.543792 322.182437)scale(0.1 -0.1)">
       <use xlink:href="#DejaVuSans-31"/>
       <use x="63.623047" xlink:href="#DejaVuSans-32"/>
       <use x="127.246094" xlink:href="#DejaVuSans-35"/>
       <use x="190.869141" xlink:href="#DejaVuSans-30"/>
      </g>
     </g>
    </g>
    <g id="xtick_7">
     <g id="line2d_7">
      <g>
       <use style="stroke:#000000;stroke-width:0.8;" x="359.956005" xlink:href="#m29ceca4e2f" y="307.584"/>
      </g>
     </g>
     <g id="text_7">
      <!-- 1500 -->
      <g transform="translate(347.231005 322.182437)scale(0.1 -0.1)">
       <use xlink:href="#DejaVuSans-31"/>
       <use x="63.623047" xlink:href="#DejaVuSans-35"/>
       <use x="127.246094" xlink:href="#DejaVuSans-30"/>
       <use x="190.869141" xlink:href="#DejaVuSans-30"/>
      </g>
     </g>
    </g>
    <g id="xtick_8">
     <g id="line2d_8">
      <g>
       <use style="stroke:#000000;stroke-width:0.8;" x="407.643218" xlink:href="#m29ceca4e2f" y="307.584"/>
      </g>
     </g>
     <g id="text_8">
      <!-- 1750 -->
      <g transform="translate(394.918218 322.182437)scale(0.1 -0.1)">
       <use xlink:href="#DejaVuSans-31"/>
       <use x="63.623047" xlink:href="#DejaVuSans-37"/>
       <use x="127.246094" xlink:href="#DejaVuSans-35"/>
       <use x="190.869141" xlink:href="#DejaVuSans-30"/>
      </g>
     </g>
    </g>
    <g id="text_9">
     <!-- Gas Fuel -->
     <defs>
      <path d="M 59.515625 10.40625 
L 59.515625 29.984375 
L 43.40625 29.984375 
L 43.40625 38.09375 
L 69.28125 38.09375 
L 69.28125 6.78125 
Q 63.578125 2.734375 56.6875 0.65625 
Q 49.8125 -1.421875 42 -1.421875 
Q 24.90625 -1.421875 15.25 8.5625 
Q 5.609375 18.5625 5.609375 36.375 
Q 5.609375 54.25 15.25 64.234375 
Q 24.90625 74.21875 42 74.21875 
Q 49.125 74.21875 55.546875 72.453125 
Q 61.96875 70.703125 67.390625 67.28125 
L 67.390625 56.78125 
Q 61.921875 61.421875 55.765625 63.765625 
Q 49.609375 66.109375 42.828125 66.109375 
Q 29.4375 66.109375 22.71875 58.640625 
Q 16.015625 51.171875 16.015625 36.375 
Q 16.015625 21.625 22.71875 14.15625 
Q 29.4375 6.6875 42.828125 6.6875 
Q 48.046875 6.6875 52.140625 7.59375 
Q 56.25 8.5 59.515625 10.40625 
z
" id="DejaVuSans-47"/>
      <path d="M 34.28125 27.484375 
Q 23.390625 27.484375 19.1875 25 
Q 14.984375 22.515625 14.984375 16.5 
Q 14.984375 11.71875 18.140625 8.90625 
Q 21.296875 6.109375 26.703125 6.109375 
Q 34.1875 6.109375 38.703125 11.40625 
Q 43.21875 16.703125 43.21875 25.484375 
L 43.21875 27.484375 
z
M 52.203125 31.203125 
L 52.203125 0 
L 43.21875 0 
L 43.21875 8.296875 
Q 40.140625 3.328125 35.546875 0.953125 
Q 30.953125 -1.421875 24.3125 -1.421875 
Q 15.921875 -1.421875 10.953125 3.296875 
Q 6 8.015625 6 15.921875 
Q 6 25.140625 12.171875 29.828125 
Q 18.359375 34.515625 30.609375 34.515625 
L 43.21875 34.515625 
L 43.21875 35.40625 
Q 43.21875 41.609375 39.140625 45 
Q 35.0625 48.390625 27.6875 48.390625 
Q 23 48.390625 18.546875 47.265625 
Q 14.109375 46.140625 10.015625 43.890625 
L 10.015625 52.203125 
Q 14.9375 54.109375 19.578125 55.046875 
Q 24.21875 56 28.609375 56 
Q 40.484375 56 46.34375 49.84375 
Q 52.203125 43.703125 52.203125 31.203125 
z
" id="DejaVuSans-61"/>
      <path d="M 44.28125 53.078125 
L 44.28125 44.578125 
Q 40.484375 46.53125 36.375 47.5 
Q 32.28125 48.484375 27.875 48.484375 
Q 21.1875 48.484375 17.84375 46.4375 
Q 14.5 44.390625 14.5 40.28125 
Q 14.5 37.15625 16.890625 35.375 
Q 19.28125 33.59375 26.515625 31.984375 
L 29.59375 31.296875 
Q 39.15625 29.25 43.1875 25.515625 
Q 47.21875 21.78125 47.21875 15.09375 
Q 47.21875 7.46875 41.1875 3.015625 
Q 35.15625 -1.421875 24.609375 -1.421875 
Q 20.21875 -1.421875 15.453125 -0.5625 
Q 10.6875 0.296875 5.421875 2 
L 5.421875 11.28125 
Q 10.40625 8.6875 15.234375 7.390625 
Q 20.0625 6.109375 24.8125 6.109375 
Q 31.15625 6.109375 34.5625 8.28125 
Q 37.984375 10.453125 37.984375 14.40625 
Q 37.984375 18.0625 35.515625 20.015625 
Q 33.0625 21.96875 24.703125 23.78125 
L 21.578125 24.515625 
Q 13.234375 26.265625 9.515625 29.90625 
Q 5.8125 33.546875 5.8125 39.890625 
Q 5.8125 47.609375 11.28125 51.796875 
Q 16.75 56 26.8125 56 
Q 31.78125 56 36.171875 55.265625 
Q 40.578125 54.546875 44.28125 53.078125 
z
" id="DejaVuSans-73"/>
      <path id="DejaVuSans-20"/>
      <path d="M 9.8125 72.90625 
L 51.703125 72.90625 
L 51.703125 64.59375 
L 19.671875 64.59375 
L 19.671875 43.109375 
L 48.578125 43.109375 
L 48.578125 34.8125 
L 19.671875 34.8125 
L 19.671875 0 
L 9.8125 0 
z
" id="DejaVuSans-46"/>
      <path d="M 8.5 21.578125 
L 8.5 54.6875 
L 17.484375 54.6875 
L 17.484375 21.921875 
Q 17.484375 14.15625 20.5 10.265625 
Q 23.53125 6.390625 29.59375 6.390625 
Q 36.859375 6.390625 41.078125 11.03125 
Q 45.3125 15.671875 45.3125 23.6875 
L 45.3125 54.6875 
L 54.296875 54.6875 
L 54.296875 0 
L 45.3125 0 
L 45.3125 8.40625 
Q 42.046875 3.421875 37.71875 1 
Q 33.40625 -1.421875 27.6875 -1.421875 
Q 18.265625 -1.421875 13.375 4.4375 
Q 8.5 10.296875 8.5 21.578125 
z
M 31.109375 56 
z
" id="DejaVuSans-75"/>
      <path d="M 56.203125 29.59375 
L 56.203125 25.203125 
L 14.890625 25.203125 
Q 15.484375 15.921875 20.484375 11.0625 
Q 25.484375 6.203125 34.421875 6.203125 
Q 39.59375 6.203125 44.453125 7.46875 
Q 49.3125 8.734375 54.109375 11.28125 
L 54.109375 2.78125 
Q 49.265625 0.734375 44.1875 -0.34375 
Q 39.109375 -1.421875 33.890625 -1.421875 
Q 20.796875 -1.421875 13.15625 6.1875 
Q 5.515625 13.8125 5.515625 26.8125 
Q 5.515625 40.234375 12.765625 48.109375 
Q 20.015625 56 32.328125 56 
Q 43.359375 56 49.78125 48.890625 
Q 56.203125 41.796875 56.203125 29.59375 
z
M 47.21875 32.234375 
Q 47.125 39.59375 43.09375 43.984375 
Q 39.0625 48.390625 32.421875 48.390625 
Q 24.90625 48.390625 20.390625 44.140625 
Q 15.875 39.890625 15.1875 32.171875 
z
" id="DejaVuSans-65"/>
      <path d="M 9.421875 75.984375 
L 18.40625 75.984375 
L 18.40625 0 
L 9.421875 0 
z
" id="DejaVuSans-6c"/>
     </defs>
     <g transform="translate(214.521719 335.860562)scale(0.1 -0.1)">
      <use xlink:href="#DejaVuSans-47"/>
      <use x="77.490234" xlink:href="#DejaVuSans-61"/>
      <use x="138.769531" xlink:href="#DejaVuSans-73"/>
      <use x="190.869141" xlink:href="#DejaVuSans-20"/>
      <use x="222.65625" xlink:href="#DejaVuSans-46"/>
      <use x="280.097656" xlink:href="#DejaVuSans-75"/>
      <use x="343.476562" xlink:href="#DejaVuSans-65"/>
      <use x="405" xlink:href="#DejaVuSans-6c"/>
     </g>
    </g>
   </g>
   <g id="matplotlib.axis_2">
    <g id="ytick_1">
     <g id="line2d_9">
      <defs>
       <path d="M 0 0 
L -3.5 0 
" id="m4c6386a09a" style="stroke:#000000;stroke-width:0.8;"/>
      </defs>
      <g>
       <use style="stroke:#000000;stroke-width:0.8;" x="57.6" xlink:href="#m4c6386a09a" y="295.488"/>
      </g>
     </g>
     <g id="text_10">
      <!-- 0 -->
      <g transform="translate(44.2375 299.287219)scale(0.1 -0.1)">
       <use xlink:href="#DejaVuSans-30"/>
      </g>
     </g>
    </g>
    <g id="ytick_2">
     <g id="line2d_10">
      <g>
       <use style="stroke:#000000;stroke-width:0.8;" x="57.6" xlink:href="#m4c6386a09a" y="256.743605"/>
      </g>
     </g>
     <g id="text_11">
      <!-- 500 -->
      <g transform="translate(31.5125 260.542824)scale(0.1 -0.1)">
       <use xlink:href="#DejaVuSans-35"/>
       <use x="63.623047" xlink:href="#DejaVuSans-30"/>
       <use x="127.246094" xlink:href="#DejaVuSans-30"/>
      </g>
     </g>
    </g>
    <g id="ytick_3">
     <g id="line2d_11">
      <g>
       <use style="stroke:#000000;stroke-width:0.8;" x="57.6" xlink:href="#m4c6386a09a" y="217.999211"/>
      </g>
     </g>
     <g id="text_12">
      <!-- 1000 -->
      <g transform="translate(25.15 221.79843)scale(0.1 -0.1)">
       <use xlink:href="#DejaVuSans-31"/>
       <use x="63.623047" xlink:href="#DejaVuSans-30"/>
       <use x="127.246094" xlink:href="#DejaVuSans-30"/>
       <use x="190.869141" xlink:href="#DejaVuSans-30"/>
      </g>
     </g>
    </g>
    <g id="ytick_4">
     <g id="line2d_12">
      <g>
       <use style="stroke:#000000;stroke-width:0.8;" x="57.6" xlink:href="#m4c6386a09a" y="179.254816"/>
      </g>
     </g>
     <g id="text_13">
      <!-- 1500 -->
      <g transform="translate(25.15 183.054035)scale(0.1 -0.1)">
       <use xlink:href="#DejaVuSans-31"/>
       <use x="63.623047" xlink:href="#DejaVuSans-35"/>
       <use x="127.246094" xlink:href="#DejaVuSans-30"/>
       <use x="190.869141" xlink:href="#DejaVuSans-30"/>
      </g>
     </g>
    </g>
    <g id="ytick_5">
     <g id="line2d_13">
      <g>
       <use style="stroke:#000000;stroke-width:0.8;" x="57.6" xlink:href="#m4c6386a09a" y="140.510422"/>
      </g>
     </g>
     <g id="text_14">
      <!-- 2000 -->
      <g transform="translate(25.15 144.30964)scale(0.1 -0.1)">
       <use xlink:href="#DejaVuSans-32"/>
       <use x="63.623047" xlink:href="#DejaVuSans-30"/>
       <use x="127.246094" xlink:href="#DejaVuSans-30"/>
       <use x="190.869141" xlink:href="#DejaVuSans-30"/>
      </g>
     </g>
    </g>
    <g id="ytick_6">
     <g id="line2d_14">
      <g>
       <use style="stroke:#000000;stroke-width:0.8;" x="57.6" xlink:href="#m4c6386a09a" y="101.766027"/>
      </g>
     </g>
     <g id="text_15">
      <!-- 2500 -->
      <g transform="translate(25.15 105.565246)scale(0.1 -0.1)">
       <use xlink:href="#DejaVuSans-32"/>
       <use x="63.623047" xlink:href="#DejaVuSans-35"/>
       <use x="127.246094" xlink:href="#DejaVuSans-30"/>
       <use x="190.869141" xlink:href="#DejaVuSans-30"/>
      </g>
     </g>
    </g>
    <g id="ytick_7">
     <g id="line2d_15">
      <g>
       <use style="stroke:#000000;stroke-width:0.8;" x="57.6" xlink:href="#m4c6386a09a" y="63.021632"/>
      </g>
     </g>
     <g id="text_16">
      <!-- 3000 -->
      <defs>
       <path d="M 40.578125 39.3125 
Q 47.65625 37.796875 51.625 33 
Q 55.609375 28.21875 55.609375 21.1875 
Q 55.609375 10.40625 48.1875 4.484375 
Q 40.765625 -1.421875 27.09375 -1.421875 
Q 22.515625 -1.421875 17.65625 -0.515625 
Q 12.796875 0.390625 7.625 2.203125 
L 7.625 11.71875 
Q 11.71875 9.328125 16.59375 8.109375 
Q 21.484375 6.890625 26.8125 6.890625 
Q 36.078125 6.890625 40.9375 10.546875 
Q 45.796875 14.203125 45.796875 21.1875 
Q 45.796875 27.640625 41.28125 31.265625 
Q 36.765625 34.90625 28.71875 34.90625 
L 20.21875 34.90625 
L 20.21875 43.015625 
L 29.109375 43.015625 
Q 36.375 43.015625 40.234375 45.921875 
Q 44.09375 48.828125 44.09375 54.296875 
Q 44.09375 59.90625 40.109375 62.90625 
Q 36.140625 65.921875 28.71875 65.921875 
Q 24.65625 65.921875 20.015625 65.03125 
Q 15.375 64.15625 9.8125 62.3125 
L 9.8125 71.09375 
Q 15.4375 72.65625 20.34375 73.4375 
Q 25.25 74.21875 29.59375 74.21875 
Q 40.828125 74.21875 47.359375 69.109375 
Q 53.90625 64.015625 53.90625 55.328125 
Q 53.90625 49.265625 50.4375 45.09375 
Q 46.96875 40.921875 40.578125 39.3125 
z
" id="DejaVuSans-33"/>
      </defs>
      <g transform="translate(25.15 66.820851)scale(0.1 -0.1)">
       <use xlink:href="#DejaVuSans-33"/>
       <use x="63.623047" xlink:href="#DejaVuSans-30"/>
       <use x="127.246094" xlink:href="#DejaVuSans-30"/>
       <use x="190.869141" xlink:href="#DejaVuSans-30"/>
      </g>
     </g>
    </g>
    <g id="text_17">
     <!-- Liquid Fuel -->
     <defs>
      <path d="M 9.8125 72.90625 
L 19.671875 72.90625 
L 19.671875 8.296875 
L 55.171875 8.296875 
L 55.171875 0 
L 9.8125 0 
z
" id="DejaVuSans-4c"/>
      <path d="M 9.421875 54.6875 
L 18.40625 54.6875 
L 18.40625 0 
L 9.421875 0 
z
M 9.421875 75.984375 
L 18.40625 75.984375 
L 18.40625 64.59375 
L 9.421875 64.59375 
z
" id="DejaVuSans-69"/>
      <path d="M 14.796875 27.296875 
Q 14.796875 17.390625 18.875 11.75 
Q 22.953125 6.109375 30.078125 6.109375 
Q 37.203125 6.109375 41.296875 11.75 
Q 45.40625 17.390625 45.40625 27.296875 
Q 45.40625 37.203125 41.296875 42.84375 
Q 37.203125 48.484375 30.078125 48.484375 
Q 22.953125 48.484375 18.875 42.84375 
Q 14.796875 37.203125 14.796875 27.296875 
z
M 45.40625 8.203125 
Q 42.578125 3.328125 38.25 0.953125 
Q 33.9375 -1.421875 27.875 -1.421875 
Q 17.96875 -1.421875 11.734375 6.484375 
Q 5.515625 14.40625 5.515625 27.296875 
Q 5.515625 40.1875 11.734375 48.09375 
Q 17.96875 56 27.875 56 
Q 33.9375 56 38.25 53.625 
Q 42.578125 51.265625 45.40625 46.390625 
L 45.40625 54.6875 
L 54.390625 54.6875 
L 54.390625 -20.796875 
L 45.40625 -20.796875 
z
" id="DejaVuSans-71"/>
      <path d="M 45.40625 46.390625 
L 45.40625 75.984375 
L 54.390625 75.984375 
L 54.390625 0 
L 45.40625 0 
L 45.40625 8.203125 
Q 42.578125 3.328125 38.25 0.953125 
Q 33.9375 -1.421875 27.875 -1.421875 
Q 17.96875 -1.421875 11.734375 6.484375 
Q 5.515625 14.40625 5.515625 27.296875 
Q 5.515625 40.1875 11.734375 48.09375 
Q 17.96875 56 27.875 56 
Q 33.9375 56 38.25 53.625 
Q 42.578125 51.265625 45.40625 46.390625 
z
M 14.796875 27.296875 
Q 14.796875 17.390625 18.875 11.75 
Q 22.953125 6.109375 30.078125 6.109375 
Q 37.203125 6.109375 41.296875 11.75 
Q 45.40625 17.390625 45.40625 27.296875 
Q 45.40625 37.203125 41.296875 42.84375 
Q 37.203125 48.484375 30.078125 48.484375 
Q 22.953125 48.484375 18.875 42.84375 
Q 14.796875 37.203125 14.796875 27.296875 
z
" id="DejaVuSans-64"/>
     </defs>
     <g transform="translate(19.070312 201.704563)rotate(-90)scale(0.1 -0.1)">
      <use xlink:href="#DejaVuSans-4c"/>
      <use x="55.712891" xlink:href="#DejaVuSans-69"/>
      <use x="83.496094" xlink:href="#DejaVuSans-71"/>
      <use x="146.972656" xlink:href="#DejaVuSans-75"/>
      <use x="210.351562" xlink:href="#DejaVuSans-69"/>
      <use x="238.134766" xlink:href="#DejaVuSans-64"/>
      <use x="301.611328" xlink:href="#DejaVuSans-20"/>
      <use x="333.398438" xlink:href="#DejaVuSans-46"/>
      <use x="390.839844" xlink:href="#DejaVuSans-75"/>
      <use x="454.21875" xlink:href="#DejaVuSans-65"/>
      <use x="515.742188" xlink:href="#DejaVuSans-6c"/>
     </g>
    </g>
   </g>
   <g id="line2d_16">
    <defs>
     <path d="M 0 3 
C 0.795609 3 1.55874 2.683901 2.12132 2.12132 
C 2.683901 1.55874 3 0.795609 3 0 
C 3 -0.795609 2.683901 -1.55874 2.12132 -2.12132 
C 1.55874 -2.683901 0.795609 -3 0 -3 
C -0.795609 -3 -1.55874 -2.683901 -2.12132 -2.12132 
C -2.683901 -1.55874 -3 -0.795609 -3 0 
C -3 0.795609 -2.683901 1.55874 -2.12132 2.12132 
C -1.55874 2.683901 -0.795609 3 0 3 
z
" id="m1e5b991783" style="stroke:#ff0000;"/>
    </defs>
    <g clip-path="url(#pb0613239dd)">
     <use style="fill:#ff0000;stroke:#ff0000;" x="73.832727" xlink:href="#m1e5b991783" y="295.488"/>
     <use style="fill:#ff0000;stroke:#ff0000;" x="73.832727" xlink:href="#m1e5b991783" y="295.488"/>
     <use style="fill:#ff0000;stroke:#ff0000;" x="73.832727" xlink:href="#m1e5b991783" y="295.488"/>
     <use style="fill:#ff0000;stroke:#ff0000;" x="73.832727" xlink:href="#m1e5b991783" y="295.488"/>
     <use style="fill:#ff0000;stroke:#ff0000;" x="73.832727" xlink:href="#m1e5b991783" y="295.488"/>
     <use style="fill:#ff0000;stroke:#ff0000;" x="73.832727" xlink:href="#m1e5b991783" y="295.488"/>
     <use style="fill:#ff0000;stroke:#ff0000;" x="73.832727" xlink:href="#m1e5b991783" y="295.488"/>
     <use style="fill:#ff0000;stroke:#ff0000;" x="73.832727" xlink:href="#m1e5b991783" y="295.488"/>
     <use style="fill:#ff0000;stroke:#ff0000;" x="73.832727" xlink:href="#m1e5b991783" y="295.488"/>
     <use style="fill:#ff0000;stroke:#ff0000;" x="73.832727" xlink:href="#m1e5b991783" y="295.488"/>
     <use style="fill:#ff0000;stroke:#ff0000;" x="73.832727" xlink:href="#m1e5b991783" y="295.488"/>
     <use style="fill:#ff0000;stroke:#ff0000;" x="73.832727" xlink:href="#m1e5b991783" y="295.488"/>
     <use style="fill:#ff0000;stroke:#ff0000;" x="73.832727" xlink:href="#m1e5b991783" y="295.488"/>
     <use style="fill:#ff0000;stroke:#ff0000;" x="73.832727" xlink:href="#m1e5b991783" y="295.488"/>
     <use style="fill:#ff0000;stroke:#ff0000;" x="73.832727" xlink:href="#m1e5b991783" y="295.488"/>
     <use style="fill:#ff0000;stroke:#ff0000;" x="73.832727" xlink:href="#m1e5b991783" y="295.488"/>
     <use style="fill:#ff0000;stroke:#ff0000;" x="73.832727" xlink:href="#m1e5b991783" y="295.488"/>
     <use style="fill:#ff0000;stroke:#ff0000;" x="73.832727" xlink:href="#m1e5b991783" y="295.488"/>
     <use style="fill:#ff0000;stroke:#ff0000;" x="73.832727" xlink:href="#m1e5b991783" y="295.488"/>
     <use style="fill:#ff0000;stroke:#ff0000;" x="73.832727" xlink:href="#m1e5b991783" y="295.488"/>
     <use style="fill:#ff0000;stroke:#ff0000;" x="73.832727" xlink:href="#m1e5b991783" y="295.488"/>
     <use style="fill:#ff0000;stroke:#ff0000;" x="73.832727" xlink:href="#m1e5b991783" y="295.488"/>
     <use style="fill:#ff0000;stroke:#ff0000;" x="73.832727" xlink:href="#m1e5b991783" y="295.488"/>
     <use style="fill:#ff0000;stroke:#ff0000;" x="73.832727" xlink:href="#m1e5b991783" y="295.488"/>
     <use style="fill:#ff0000;stroke:#ff0000;" x="73.832727" xlink:href="#m1e5b991783" y="295.488"/>
     <use style="fill:#ff0000;stroke:#ff0000;" x="73.832727" xlink:href="#m1e5b991783" y="295.488"/>
     <use style="fill:#ff0000;stroke:#ff0000;" x="73.832727" xlink:href="#m1e5b991783" y="295.488"/>
     <use style="fill:#ff0000;stroke:#ff0000;" x="73.832727" xlink:href="#m1e5b991783" y="295.488"/>
     <use style="fill:#ff0000;stroke:#ff0000;" x="73.832727" xlink:href="#m1e5b991783" y="295.488"/>
     <use style="fill:#ff0000;stroke:#ff0000;" x="73.832727" xlink:href="#m1e5b991783" y="295.488"/>
     <use style="fill:#ff0000;stroke:#ff0000;" x="73.832727" xlink:href="#m1e5b991783" y="295.488"/>
     <use style="fill:#ff0000;stroke:#ff0000;" x="73.832727" xlink:href="#m1e5b991783" y="295.488"/>
     <use style="fill:#ff0000;stroke:#ff0000;" x="73.832727" xlink:href="#m1e5b991783" y="295.488"/>
     <use style="fill:#ff0000;stroke:#ff0000;" x="73.832727" xlink:href="#m1e5b991783" y="295.488"/>
     <use style="fill:#ff0000;stroke:#ff0000;" x="73.832727" xlink:href="#m1e5b991783" y="295.488"/>
     <use style="fill:#ff0000;stroke:#ff0000;" x="73.832727" xlink:href="#m1e5b991783" y="295.488"/>
     <use style="fill:#ff0000;stroke:#ff0000;" x="73.832727" xlink:href="#m1e5b991783" y="295.488"/>
     <use style="fill:#ff0000;stroke:#ff0000;" x="73.832727" xlink:href="#m1e5b991783" y="295.488"/>
     <use style="fill:#ff0000;stroke:#ff0000;" x="73.832727" xlink:href="#m1e5b991783" y="295.488"/>
     <use style="fill:#ff0000;stroke:#ff0000;" x="73.832727" xlink:href="#m1e5b991783" y="295.488"/>
     <use style="fill:#ff0000;stroke:#ff0000;" x="73.832727" xlink:href="#m1e5b991783" y="295.488"/>
     <use style="fill:#ff0000;stroke:#ff0000;" x="73.832727" xlink:href="#m1e5b991783" y="295.488"/>
     <use style="fill:#ff0000;stroke:#ff0000;" x="73.832727" xlink:href="#m1e5b991783" y="295.488"/>
     <use style="fill:#ff0000;stroke:#ff0000;" x="73.832727" xlink:href="#m1e5b991783" y="295.488"/>
     <use style="fill:#ff0000;stroke:#ff0000;" x="73.832727" xlink:href="#m1e5b991783" y="295.488"/>
     <use style="fill:#ff0000;stroke:#ff0000;" x="73.832727" xlink:href="#m1e5b991783" y="295.488"/>
     <use style="fill:#ff0000;stroke:#ff0000;" x="73.832727" xlink:href="#m1e5b991783" y="295.488"/>
     <use style="fill:#ff0000;stroke:#ff0000;" x="73.832727" xlink:href="#m1e5b991783" y="295.488"/>
     <use style="fill:#ff0000;stroke:#ff0000;" x="73.832727" xlink:href="#m1e5b991783" y="295.488"/>
     <use style="fill:#ff0000;stroke:#ff0000;" x="73.832727" xlink:href="#m1e5b991783" y="295.488"/>
     <use style="fill:#ff0000;stroke:#ff0000;" x="73.832727" xlink:href="#m1e5b991783" y="295.488"/>
     <use style="fill:#ff0000;stroke:#ff0000;" x="73.832727" xlink:href="#m1e5b991783" y="295.488"/>
     <use style="fill:#ff0000;stroke:#ff0000;" x="73.832727" xlink:href="#m1e5b991783" y="295.488"/>
     <use style="fill:#ff0000;stroke:#ff0000;" x="73.832727" xlink:href="#m1e5b991783" y="295.488"/>
     <use style="fill:#ff0000;stroke:#ff0000;" x="73.832727" xlink:href="#m1e5b991783" y="295.488"/>
     <use style="fill:#ff0000;stroke:#ff0000;" x="73.832727" xlink:href="#m1e5b991783" y="295.488"/>
     <use style="fill:#ff0000;stroke:#ff0000;" x="73.832727" xlink:href="#m1e5b991783" y="295.488"/>
     <use style="fill:#ff0000;stroke:#ff0000;" x="73.832727" xlink:href="#m1e5b991783" y="295.488"/>
     <use style="fill:#ff0000;stroke:#ff0000;" x="73.832727" xlink:href="#m1e5b991783" y="295.488"/>
     <use style="fill:#ff0000;stroke:#ff0000;" x="73.832727" xlink:href="#m1e5b991783" y="295.488"/>
     <use style="fill:#ff0000;stroke:#ff0000;" x="73.832727" xlink:href="#m1e5b991783" y="295.488"/>
     <use style="fill:#ff0000;stroke:#ff0000;" x="73.832727" xlink:href="#m1e5b991783" y="295.488"/>
     <use style="fill:#ff0000;stroke:#ff0000;" x="73.832727" xlink:href="#m1e5b991783" y="295.488"/>
     <use style="fill:#ff0000;stroke:#ff0000;" x="73.832727" xlink:href="#m1e5b991783" y="295.488"/>
     <use style="fill:#ff0000;stroke:#ff0000;" x="73.832727" xlink:href="#m1e5b991783" y="295.488"/>
     <use style="fill:#ff0000;stroke:#ff0000;" x="73.832727" xlink:href="#m1e5b991783" y="295.488"/>
     <use style="fill:#ff0000;stroke:#ff0000;" x="73.832727" xlink:href="#m1e5b991783" y="295.488"/>
     <use style="fill:#ff0000;stroke:#ff0000;" x="73.832727" xlink:href="#m1e5b991783" y="295.488"/>
     <use style="fill:#ff0000;stroke:#ff0000;" x="73.832727" xlink:href="#m1e5b991783" y="295.488"/>
     <use style="fill:#ff0000;stroke:#ff0000;" x="73.832727" xlink:href="#m1e5b991783" y="295.488"/>
     <use style="fill:#ff0000;stroke:#ff0000;" x="73.832727" xlink:href="#m1e5b991783" y="295.488"/>
     <use style="fill:#ff0000;stroke:#ff0000;" x="73.832727" xlink:href="#m1e5b991783" y="295.488"/>
     <use style="fill:#ff0000;stroke:#ff0000;" x="73.832727" xlink:href="#m1e5b991783" y="295.488"/>
     <use style="fill:#ff0000;stroke:#ff0000;" x="73.832727" xlink:href="#m1e5b991783" y="295.488"/>
     <use style="fill:#ff0000;stroke:#ff0000;" x="73.832727" xlink:href="#m1e5b991783" y="295.488"/>
     <use style="fill:#ff0000;stroke:#ff0000;" x="73.832727" xlink:href="#m1e5b991783" y="295.488"/>
     <use style="fill:#ff0000;stroke:#ff0000;" x="73.832727" xlink:href="#m1e5b991783" y="295.488"/>
     <use style="fill:#ff0000;stroke:#ff0000;" x="73.832727" xlink:href="#m1e5b991783" y="295.488"/>
     <use style="fill:#ff0000;stroke:#ff0000;" x="73.832727" xlink:href="#m1e5b991783" y="295.488"/>
     <use style="fill:#ff0000;stroke:#ff0000;" x="73.832727" xlink:href="#m1e5b991783" y="295.488"/>
     <use style="fill:#ff0000;stroke:#ff0000;" x="73.832727" xlink:href="#m1e5b991783" y="295.488"/>
     <use style="fill:#ff0000;stroke:#ff0000;" x="73.832727" xlink:href="#m1e5b991783" y="295.488"/>
     <use style="fill:#ff0000;stroke:#ff0000;" x="73.832727" xlink:href="#m1e5b991783" y="295.488"/>
     <use style="fill:#ff0000;stroke:#ff0000;" x="73.832727" xlink:href="#m1e5b991783" y="295.488"/>
     <use style="fill:#ff0000;stroke:#ff0000;" x="73.832727" xlink:href="#m1e5b991783" y="295.488"/>
     <use style="fill:#ff0000;stroke:#ff0000;" x="73.832727" xlink:href="#m1e5b991783" y="295.488"/>
     <use style="fill:#ff0000;stroke:#ff0000;" x="73.832727" xlink:href="#m1e5b991783" y="295.488"/>
     <use style="fill:#ff0000;stroke:#ff0000;" x="73.832727" xlink:href="#m1e5b991783" y="295.488"/>
     <use style="fill:#ff0000;stroke:#ff0000;" x="73.832727" xlink:href="#m1e5b991783" y="295.488"/>
     <use style="fill:#ff0000;stroke:#ff0000;" x="73.832727" xlink:href="#m1e5b991783" y="295.488"/>
     <use style="fill:#ff0000;stroke:#ff0000;" x="73.832727" xlink:href="#m1e5b991783" y="295.488"/>
     <use style="fill:#ff0000;stroke:#ff0000;" x="73.832727" xlink:href="#m1e5b991783" y="295.488"/>
     <use style="fill:#ff0000;stroke:#ff0000;" x="73.832727" xlink:href="#m1e5b991783" y="295.488"/>
     <use style="fill:#ff0000;stroke:#ff0000;" x="73.832727" xlink:href="#m1e5b991783" y="295.488"/>
     <use style="fill:#ff0000;stroke:#ff0000;" x="73.832727" xlink:href="#m1e5b991783" y="295.488"/>
     <use style="fill:#ff0000;stroke:#ff0000;" x="73.832727" xlink:href="#m1e5b991783" y="295.488"/>
     <use style="fill:#ff0000;stroke:#ff0000;" x="73.832727" xlink:href="#m1e5b991783" y="295.488"/>
     <use style="fill:#ff0000;stroke:#ff0000;" x="73.832727" xlink:href="#m1e5b991783" y="295.488"/>
     <use style="fill:#ff0000;stroke:#ff0000;" x="73.832727" xlink:href="#m1e5b991783" y="295.488"/>
     <use style="fill:#ff0000;stroke:#ff0000;" x="73.832727" xlink:href="#m1e5b991783" y="295.488"/>
     <use style="fill:#ff0000;stroke:#ff0000;" x="73.832727" xlink:href="#m1e5b991783" y="295.488"/>
     <use style="fill:#ff0000;stroke:#ff0000;" x="73.832727" xlink:href="#m1e5b991783" y="295.488"/>
     <use style="fill:#ff0000;stroke:#ff0000;" x="73.832727" xlink:href="#m1e5b991783" y="295.488"/>
     <use style="fill:#ff0000;stroke:#ff0000;" x="73.832727" xlink:href="#m1e5b991783" y="295.488"/>
     <use style="fill:#ff0000;stroke:#ff0000;" x="73.832727" xlink:href="#m1e5b991783" y="295.488"/>
     <use style="fill:#ff0000;stroke:#ff0000;" x="73.832727" xlink:href="#m1e5b991783" y="295.488"/>
     <use style="fill:#ff0000;stroke:#ff0000;" x="73.832727" xlink:href="#m1e5b991783" y="295.488"/>
     <use style="fill:#ff0000;stroke:#ff0000;" x="73.832727" xlink:href="#m1e5b991783" y="295.488"/>
     <use style="fill:#ff0000;stroke:#ff0000;" x="73.832727" xlink:href="#m1e5b991783" y="295.488"/>
     <use style="fill:#ff0000;stroke:#ff0000;" x="73.832727" xlink:href="#m1e5b991783" y="295.488"/>
     <use style="fill:#ff0000;stroke:#ff0000;" x="73.832727" xlink:href="#m1e5b991783" y="295.488"/>
     <use style="fill:#ff0000;stroke:#ff0000;" x="73.832727" xlink:href="#m1e5b991783" y="295.488"/>
     <use style="fill:#ff0000;stroke:#ff0000;" x="73.832727" xlink:href="#m1e5b991783" y="295.488"/>
     <use style="fill:#ff0000;stroke:#ff0000;" x="73.832727" xlink:href="#m1e5b991783" y="295.488"/>
     <use style="fill:#ff0000;stroke:#ff0000;" x="73.832727" xlink:href="#m1e5b991783" y="295.488"/>
     <use style="fill:#ff0000;stroke:#ff0000;" x="73.832727" xlink:href="#m1e5b991783" y="295.488"/>
     <use style="fill:#ff0000;stroke:#ff0000;" x="73.832727" xlink:href="#m1e5b991783" y="295.488"/>
     <use style="fill:#ff0000;stroke:#ff0000;" x="73.832727" xlink:href="#m1e5b991783" y="295.488"/>
     <use style="fill:#ff0000;stroke:#ff0000;" x="73.832727" xlink:href="#m1e5b991783" y="295.488"/>
     <use style="fill:#ff0000;stroke:#ff0000;" x="73.832727" xlink:href="#m1e5b991783" y="295.410511"/>
     <use style="fill:#ff0000;stroke:#ff0000;" x="73.832727" xlink:href="#m1e5b991783" y="295.410511"/>
     <use style="fill:#ff0000;stroke:#ff0000;" x="73.832727" xlink:href="#m1e5b991783" y="295.410511"/>
     <use style="fill:#ff0000;stroke:#ff0000;" x="73.832727" xlink:href="#m1e5b991783" y="295.410511"/>
     <use style="fill:#ff0000;stroke:#ff0000;" x="73.832727" xlink:href="#m1e5b991783" y="295.410511"/>
     <use style="fill:#ff0000;stroke:#ff0000;" x="73.832727" xlink:href="#m1e5b991783" y="295.410511"/>
     <use style="fill:#ff0000;stroke:#ff0000;" x="73.832727" xlink:href="#m1e5b991783" y="295.410511"/>
     <use style="fill:#ff0000;stroke:#ff0000;" x="73.832727" xlink:href="#m1e5b991783" y="295.333022"/>
     <use style="fill:#ff0000;stroke:#ff0000;" x="73.832727" xlink:href="#m1e5b991783" y="295.333022"/>
     <use style="fill:#ff0000;stroke:#ff0000;" x="73.832727" xlink:href="#m1e5b991783" y="295.255534"/>
     <use style="fill:#ff0000;stroke:#ff0000;" x="73.832727" xlink:href="#m1e5b991783" y="295.255534"/>
     <use style="fill:#ff0000;stroke:#ff0000;" x="73.832727" xlink:href="#m1e5b991783" y="295.178045"/>
     <use style="fill:#ff0000;stroke:#ff0000;" x="73.832727" xlink:href="#m1e5b991783" y="295.178045"/>
     <use style="fill:#ff0000;stroke:#ff0000;" x="73.832727" xlink:href="#m1e5b991783" y="295.255534"/>
     <use style="fill:#ff0000;stroke:#ff0000;" x="73.832727" xlink:href="#m1e5b991783" y="295.178045"/>
     <use style="fill:#ff0000;stroke:#ff0000;" x="74.023476" xlink:href="#m1e5b991783" y="295.178045"/>
     <use style="fill:#ff0000;stroke:#ff0000;" x="74.214225" xlink:href="#m1e5b991783" y="295.100556"/>
     <use style="fill:#ff0000;stroke:#ff0000;" x="74.404974" xlink:href="#m1e5b991783" y="295.100556"/>
     <use style="fill:#ff0000;stroke:#ff0000;" x="74.786472" xlink:href="#m1e5b991783" y="295.100556"/>
     <use style="fill:#ff0000;stroke:#ff0000;" x="74.404974" xlink:href="#m1e5b991783" y="295.023067"/>
     <use style="fill:#ff0000;stroke:#ff0000;" x="74.404974" xlink:href="#m1e5b991783" y="294.86809"/>
     <use style="fill:#ff0000;stroke:#ff0000;" x="74.214225" xlink:href="#m1e5b991783" y="294.790601"/>
     <use style="fill:#ff0000;stroke:#ff0000;" x="74.214225" xlink:href="#m1e5b991783" y="294.790601"/>
     <use style="fill:#ff0000;stroke:#ff0000;" x="74.214225" xlink:href="#m1e5b991783" y="294.713112"/>
     <use style="fill:#ff0000;stroke:#ff0000;" x="74.214225" xlink:href="#m1e5b991783" y="294.790601"/>
     <use style="fill:#ff0000;stroke:#ff0000;" x="74.214225" xlink:href="#m1e5b991783" y="294.635623"/>
     <use style="fill:#ff0000;stroke:#ff0000;" x="74.214225" xlink:href="#m1e5b991783" y="294.558135"/>
     <use style="fill:#ff0000;stroke:#ff0000;" x="74.214225" xlink:href="#m1e5b991783" y="294.480646"/>
     <use style="fill:#ff0000;stroke:#ff0000;" x="74.214225" xlink:href="#m1e5b991783" y="294.480646"/>
     <use style="fill:#ff0000;stroke:#ff0000;" x="74.404974" xlink:href="#m1e5b991783" y="294.403157"/>
     <use style="fill:#ff0000;stroke:#ff0000;" x="74.404974" xlink:href="#m1e5b991783" y="294.248179"/>
     <use style="fill:#ff0000;stroke:#ff0000;" x="74.595723" xlink:href="#m1e5b991783" y="294.093202"/>
     <use style="fill:#ff0000;stroke:#ff0000;" x="74.595723" xlink:href="#m1e5b991783" y="294.015713"/>
     <use style="fill:#ff0000;stroke:#ff0000;" x="74.595723" xlink:href="#m1e5b991783" y="293.938224"/>
     <use style="fill:#ff0000;stroke:#ff0000;" x="74.595723" xlink:href="#m1e5b991783" y="293.705758"/>
     <use style="fill:#ff0000;stroke:#ff0000;" x="74.786472" xlink:href="#m1e5b991783" y="293.705758"/>
     <use style="fill:#ff0000;stroke:#ff0000;" x="74.786472" xlink:href="#m1e5b991783" y="293.705758"/>
     <use style="fill:#ff0000;stroke:#ff0000;" x="74.786472" xlink:href="#m1e5b991783" y="293.318314"/>
     <use style="fill:#ff0000;stroke:#ff0000;" x="74.786472" xlink:href="#m1e5b991783" y="293.163336"/>
     <use style="fill:#ff0000;stroke:#ff0000;" x="74.97722" xlink:href="#m1e5b991783" y="293.008359"/>
     <use style="fill:#ff0000;stroke:#ff0000;" x="75.167969" xlink:href="#m1e5b991783" y="292.853381"/>
     <use style="fill:#ff0000;stroke:#ff0000;" x="75.167969" xlink:href="#m1e5b991783" y="292.698404"/>
     <use style="fill:#ff0000;stroke:#ff0000;" x="75.358718" xlink:href="#m1e5b991783" y="292.620915"/>
     <use style="fill:#ff0000;stroke:#ff0000;" x="75.358718" xlink:href="#m1e5b991783" y="292.31096"/>
     <use style="fill:#ff0000;stroke:#ff0000;" x="75.358718" xlink:href="#m1e5b991783" y="292.233471"/>
     <use style="fill:#ff0000;stroke:#ff0000;" x="75.549467" xlink:href="#m1e5b991783" y="292.001004"/>
     <use style="fill:#ff0000;stroke:#ff0000;" x="75.740216" xlink:href="#m1e5b991783" y="291.768538"/>
     <use style="fill:#ff0000;stroke:#ff0000;" x="75.930965" xlink:href="#m1e5b991783" y="291.303605"/>
     <use style="fill:#ff0000;stroke:#ff0000;" x="75.740216" xlink:href="#m1e5b991783" y="291.381094"/>
     <use style="fill:#ff0000;stroke:#ff0000;" x="75.740216" xlink:href="#m1e5b991783" y="290.761184"/>
     <use style="fill:#ff0000;stroke:#ff0000;" x="75.930965" xlink:href="#m1e5b991783" y="289.443874"/>
     <use style="fill:#ff0000;stroke:#ff0000;" x="75.740216" xlink:href="#m1e5b991783" y="288.978942"/>
     <use style="fill:#ff0000;stroke:#ff0000;" x="75.930965" xlink:href="#m1e5b991783" y="288.204054"/>
     <use style="fill:#ff0000;stroke:#ff0000;" x="76.503211" xlink:href="#m1e5b991783" y="286.886744"/>
     <use style="fill:#ff0000;stroke:#ff0000;" x="76.884709" xlink:href="#m1e5b991783" y="286.964233"/>
     <use style="fill:#ff0000;stroke:#ff0000;" x="77.075458" xlink:href="#m1e5b991783" y="286.4993"/>
     <use style="fill:#ff0000;stroke:#ff0000;" x="77.456955" xlink:href="#m1e5b991783" y="286.266834"/>
     <use style="fill:#ff0000;stroke:#ff0000;" x="77.838453" xlink:href="#m1e5b991783" y="284.949525"/>
     <use style="fill:#ff0000;stroke:#ff0000;" x="78.219951" xlink:href="#m1e5b991783" y="284.407103"/>
     <use style="fill:#ff0000;stroke:#ff0000;" x="79.173695" xlink:href="#m1e5b991783" y="283.089794"/>
     <use style="fill:#ff0000;stroke:#ff0000;" x="79.173695" xlink:href="#m1e5b991783" y="283.709704"/>
     <use style="fill:#ff0000;stroke:#ff0000;" x="78.601449" xlink:href="#m1e5b991783" y="284.097148"/>
     <use style="fill:#ff0000;stroke:#ff0000;" x="78.4107" xlink:href="#m1e5b991783" y="284.562081"/>
     <use style="fill:#ff0000;stroke:#ff0000;" x="78.601449" xlink:href="#m1e5b991783" y="283.554726"/>
     <use style="fill:#ff0000;stroke:#ff0000;" x="79.173695" xlink:href="#m1e5b991783" y="282.934816"/>
     <use style="fill:#ff0000;stroke:#ff0000;" x="79.555193" xlink:href="#m1e5b991783" y="281.849973"/>
     <use style="fill:#ff0000;stroke:#ff0000;" x="80.318188" xlink:href="#m1e5b991783" y="280.610152"/>
     <use style="fill:#ff0000;stroke:#ff0000;" x="81.081184" xlink:href="#m1e5b991783" y="278.517955"/>
     <use style="fill:#ff0000;stroke:#ff0000;" x="80.890435" xlink:href="#m1e5b991783" y="278.905399"/>
     <use style="fill:#ff0000;stroke:#ff0000;" x="81.081184" xlink:href="#m1e5b991783" y="278.285489"/>
     <use style="fill:#ff0000;stroke:#ff0000;" x="81.844179" xlink:href="#m1e5b991783" y="277.743067"/>
     <use style="fill:#ff0000;stroke:#ff0000;" x="81.844179" xlink:href="#m1e5b991783" y="277.200646"/>
     <use style="fill:#ff0000;stroke:#ff0000;" x="82.416426" xlink:href="#m1e5b991783" y="278.285489"/>
     <use style="fill:#ff0000;stroke:#ff0000;" x="83.37017" xlink:href="#m1e5b991783" y="276.968179"/>
     <use style="fill:#ff0000;stroke:#ff0000;" x="84.133165" xlink:href="#m1e5b991783" y="274.178583"/>
     <use style="fill:#ff0000;stroke:#ff0000;" x="85.08691" xlink:href="#m1e5b991783" y="274.178583"/>
     <use style="fill:#ff0000;stroke:#ff0000;" x="85.468407" xlink:href="#m1e5b991783" y="272.861274"/>
     <use style="fill:#ff0000;stroke:#ff0000;" x="86.6129" xlink:href="#m1e5b991783" y="270.53661"/>
     <use style="fill:#ff0000;stroke:#ff0000;" x="88.32964" xlink:href="#m1e5b991783" y="267.282081"/>
     <use style="fill:#ff0000;stroke:#ff0000;" x="89.283384" xlink:href="#m1e5b991783" y="267.437058"/>
     <use style="fill:#ff0000;stroke:#ff0000;" x="92.335366" xlink:href="#m1e5b991783" y="262.710242"/>
     <use style="fill:#ff0000;stroke:#ff0000;" x="95.768845" xlink:href="#m1e5b991783" y="258.37087"/>
     <use style="fill:#ff0000;stroke:#ff0000;" x="97.485585" xlink:href="#m1e5b991783" y="256.43365"/>
     <use style="fill:#ff0000;stroke:#ff0000;" x="98.820827" xlink:href="#m1e5b991783" y="254.186475"/>
     <use style="fill:#ff0000;stroke:#ff0000;" x="100.156069" xlink:href="#m1e5b991783" y="252.326744"/>
     <use style="fill:#ff0000;stroke:#ff0000;" x="102.445055" xlink:href="#m1e5b991783" y="247.057507"/>
     <use style="fill:#ff0000;stroke:#ff0000;" x="104.543292" xlink:href="#m1e5b991783" y="242.873112"/>
     <use style="fill:#ff0000;stroke:#ff0000;" x="107.786023" xlink:href="#m1e5b991783" y="240.161004"/>
     <use style="fill:#ff0000;stroke:#ff0000;" x="110.456507" xlink:href="#m1e5b991783" y="238.843695"/>
     <use style="fill:#ff0000;stroke:#ff0000;" x="113.126991" xlink:href="#m1e5b991783" y="234.349345"/>
     <use style="fill:#ff0000;stroke:#ff0000;" x="117.132717" xlink:href="#m1e5b991783" y="229.700018"/>
     <use style="fill:#ff0000;stroke:#ff0000;" x="119.612452" xlink:href="#m1e5b991783" y="225.438135"/>
     <use style="fill:#ff0000;stroke:#ff0000;" x="123.999675" xlink:href="#m1e5b991783" y="219.548987"/>
     <use style="fill:#ff0000;stroke:#ff0000;" x="128.386899" xlink:href="#m1e5b991783" y="213.969794"/>
     <use style="fill:#ff0000;stroke:#ff0000;" x="134.109364" xlink:href="#m1e5b991783" y="207.383247"/>
     <use style="fill:#ff0000;stroke:#ff0000;" x="138.11509" xlink:href="#m1e5b991783" y="201.029166"/>
     <use style="fill:#ff0000;stroke:#ff0000;" x="143.265309" xlink:href="#m1e5b991783" y="192.970332"/>
     <use style="fill:#ff0000;stroke:#ff0000;" x="148.606277" xlink:href="#m1e5b991783" y="185.221453"/>
     <use style="fill:#ff0000;stroke:#ff0000;" x="154.71024" xlink:href="#m1e5b991783" y="175.302888"/>
     <use style="fill:#ff0000;stroke:#ff0000;" x="162.912441" xlink:href="#m1e5b991783" y="165.849256"/>
     <use style="fill:#ff0000;stroke:#ff0000;" x="167.871911" xlink:href="#m1e5b991783" y="152.986117"/>
     <use style="fill:#ff0000;stroke:#ff0000;" x="174.929619" xlink:href="#m1e5b991783" y="144.617327"/>
     <use style="fill:#ff0000;stroke:#ff0000;" x="180.652084" xlink:href="#m1e5b991783" y="136.093561"/>
     <use style="fill:#ff0000;stroke:#ff0000;" x="185.993052" xlink:href="#m1e5b991783" y="121.835623"/>
     <use style="fill:#ff0000;stroke:#ff0000;" x="187.709792" xlink:href="#m1e5b991783" y="121.525668"/>
     <use style="fill:#ff0000;stroke:#ff0000;" x="189.045034" xlink:href="#m1e5b991783" y="130.281901"/>
     <use style="fill:#ff0000;stroke:#ff0000;" x="194.004504" xlink:href="#m1e5b991783" y="116.178942"/>
     <use style="fill:#ff0000;stroke:#ff0000;" x="197.819481" xlink:href="#m1e5b991783" y="109.669883"/>
     <use style="fill:#ff0000;stroke:#ff0000;" x="203.541946" xlink:href="#m1e5b991783" y="110.134816"/>
     <use style="fill:#ff0000;stroke:#ff0000;" x="211.362649" xlink:href="#m1e5b991783" y="98.35652"/>
     <use style="fill:#ff0000;stroke:#ff0000;" x="214.986877" xlink:href="#m1e5b991783" y="107.810152"/>
     <use style="fill:#ff0000;stroke:#ff0000;" x="218.038859" xlink:href="#m1e5b991783" y="118.116161"/>
     <use style="fill:#ff0000;stroke:#ff0000;" x="214.986877" xlink:href="#m1e5b991783" y="125.322619"/>
     <use style="fill:#ff0000;stroke:#ff0000;" x="215.177626" xlink:href="#m1e5b991783" y="126.872395"/>
     <use style="fill:#ff0000;stroke:#ff0000;" x="227.957799" xlink:href="#m1e5b991783" y="125.090152"/>
     <use style="fill:#ff0000;stroke:#ff0000;" x="233.489516" xlink:href="#m1e5b991783" y="126.097507"/>
     <use style="fill:#ff0000;stroke:#ff0000;" x="232.345023" xlink:href="#m1e5b991783" y="117.806206"/>
     <use style="fill:#ff0000;stroke:#ff0000;" x="244.362201" xlink:href="#m1e5b991783" y="116.798852"/>
     <use style="fill:#ff0000;stroke:#ff0000;" x="252.564401" xlink:href="#m1e5b991783" y="108.58504"/>
     <use style="fill:#ff0000;stroke:#ff0000;" x="261.720346" xlink:href="#m1e5b991783" y="104.943067"/>
     <use style="fill:#ff0000;stroke:#ff0000;" x="268.205807" xlink:href="#m1e5b991783" y="102.385937"/>
     <use style="fill:#ff0000;stroke:#ff0000;" x="276.598757" xlink:href="#m1e5b991783" y="93.629704"/>
     <use style="fill:#ff0000;stroke:#ff0000;" x="282.70272" xlink:href="#m1e5b991783" y="100.991139"/>
     <use style="fill:#ff0000;stroke:#ff0000;" x="289.188181" xlink:href="#m1e5b991783" y="99.983785"/>
     <use style="fill:#ff0000;stroke:#ff0000;" x="291.095669" xlink:href="#m1e5b991783" y="98.201543"/>
     <use style="fill:#ff0000;stroke:#ff0000;" x="294.529149" xlink:href="#m1e5b991783" y="96.729256"/>
     <use style="fill:#ff0000;stroke:#ff0000;" x="304.448089" xlink:href="#m1e5b991783" y="92.157417"/>
     <use style="fill:#ff0000;stroke:#ff0000;" x="304.25734" xlink:href="#m1e5b991783" y="86.268269"/>
     <use style="fill:#ff0000;stroke:#ff0000;" x="310.93355" xlink:href="#m1e5b991783" y="81.154009"/>
     <use style="fill:#ff0000;stroke:#ff0000;" x="316.083769" xlink:href="#m1e5b991783" y="83.401184"/>
     <use style="fill:#ff0000;stroke:#ff0000;" x="319.517248" xlink:href="#m1e5b991783" y="75.574816"/>
     <use style="fill:#ff0000;stroke:#ff0000;" x="324.095221" xlink:href="#m1e5b991783" y="75.419839"/>
     <use style="fill:#ff0000;stroke:#ff0000;" x="330.199184" xlink:href="#m1e5b991783" y="76.117238"/>
     <use style="fill:#ff0000;stroke:#ff0000;" x="339.16438" xlink:href="#m1e5b991783" y="66.198673"/>
     <use style="fill:#ff0000;stroke:#ff0000;" x="347.938827" xlink:href="#m1e5b991783" y="58.914726"/>
     <use style="fill:#ff0000;stroke:#ff0000;" x="356.141028" xlink:href="#m1e5b991783" y="57.132484"/>
     <use style="fill:#ff0000;stroke:#ff0000;" x="364.724726" xlink:href="#m1e5b991783" y="56.12513"/>
     <use style="fill:#ff0000;stroke:#ff0000;" x="373.689922" xlink:href="#m1e5b991783" y="56.74504"/>
     <use style="fill:#ff0000;stroke:#ff0000;" x="384.944104" xlink:href="#m1e5b991783" y="53.568"/>
     <use style="fill:#ff0000;stroke:#ff0000;" x="376.169657" xlink:href="#m1e5b991783" y="58.68226"/>
     <use style="fill:#ff0000;stroke:#ff0000;" x="398.487273" xlink:href="#m1e5b991783" y="54.18791"/>
    </g>
   </g>
   <g id="patch_3">
    <path d="M 57.6 307.584 
L 57.6 41.472 
" style="fill:none;stroke:#000000;stroke-linecap:square;stroke-linejoin:miter;stroke-width:0.8;"/>
   </g>
   <g id="patch_4">
    <path d="M 414.72 307.584 
L 414.72 41.472 
" style="fill:none;stroke:#000000;stroke-linecap:square;stroke-linejoin:miter;stroke-width:0.8;"/>
   </g>
   <g id="patch_5">
    <path d="M 57.6 307.584 
L 414.72 307.584 
" style="fill:none;stroke:#000000;stroke-linecap:square;stroke-linejoin:miter;stroke-width:0.8;"/>
   </g>
   <g id="patch_6">
    <path d="M 57.6 41.472 
L 414.72 41.472 
" style="fill:none;stroke:#000000;stroke-linecap:square;stroke-linejoin:miter;stroke-width:0.8;"/>
   </g>
  </g>
 </g>
 <defs>
  <clipPath id="pb0613239dd">
   <rect height="266.112" width="357.12" x="57.6" y="41.472"/>
  </clipPath>
 </defs>
</svg>
