<?xml version="1.0" encoding="utf-8" standalone="no"?>
<!DOCTYPE svg PUBLIC "-//W3C//DTD SVG 1.1//EN"
  "http://www.w3.org/Graphics/SVG/1.1/DTD/svg11.dtd">
<!-- Created with matplotlib (http://matplotlib.org/) -->
<svg height="345pt" version="1.1" viewBox="0 0 460 345" width="460pt" xmlns="http://www.w3.org/2000/svg" xmlns:xlink="http://www.w3.org/1999/xlink">
 <defs>
  <style type="text/css">
*{stroke-linecap:butt;stroke-linejoin:round;}
  </style>
 </defs>
 <g id="figure_1">
  <g id="patch_1">
   <path d="M 0 345.6 
L 460.8 345.6 
L 460.8 0 
L 0 0 
z
" style="fill:#ffffff;"/>
  </g>
  <g id="axes_1">
   <g id="patch_2">
    <path d="M 57.6 307.584 
L 414.72 307.584 
L 414.72 41.472 
L 57.6 41.472 
z
" style="fill:#ffffff;"/>
   </g>
   <g id="matplotlib.axis_1">
    <g id="xtick_1">
     <g id="line2d_1">
      <defs>
       <path d="M 0 0 
L 0 3.5 
" id="m79d79feb67" style="stroke:#000000;stroke-width:0.8;"/>
      </defs>
      <g>
       <use style="stroke:#000000;stroke-width:0.8;" x="73.832727" xlink:href="#m79d79feb67" y="307.584"/>
      </g>
     </g>
     <g id="text_1">
      <!-- 0 -->
      <defs>
       <path d="M 31.78125 66.40625 
Q 24.171875 66.40625 20.328125 58.90625 
Q 16.5 51.421875 16.5 36.375 
Q 16.5 21.390625 20.328125 13.890625 
Q 24.171875 6.390625 31.78125 6.390625 
Q 39.453125 6.390625 43.28125 13.890625 
Q 47.125 21.390625 47.125 36.375 
Q 47.125 51.421875 43.28125 58.90625 
Q 39.453125 66.40625 31.78125 66.40625 
z
M 31.78125 74.21875 
Q 44.046875 74.21875 50.515625 64.515625 
Q 56.984375 54.828125 56.984375 36.375 
Q 56.984375 17.96875 50.515625 8.265625 
Q 44.046875 -1.421875 31.78125 -1.421875 
Q 19.53125 -1.421875 13.0625 8.265625 
Q 6.59375 17.96875 6.59375 36.375 
Q 6.59375 54.828125 13.0625 64.515625 
Q 19.53125 74.21875 31.78125 74.21875 
z
" id="DejaVuSans-30"/>
      </defs>
      <g transform="translate(70.651477 322.182437)scale(0.1 -0.1)">
       <use xlink:href="#DejaVuSans-30"/>
      </g>
     </g>
    </g>
    <g id="xtick_2">
     <g id="line2d_2">
      <g>
       <use style="stroke:#000000;stroke-width:0.8;" x="125.827369" xlink:href="#m79d79feb67" y="307.584"/>
      </g>
     </g>
     <g id="text_2">
      <!-- 500 -->
      <defs>
       <path d="M 10.796875 72.90625 
L 49.515625 72.90625 
L 49.515625 64.59375 
L 19.828125 64.59375 
L 19.828125 46.734375 
Q 21.96875 47.46875 24.109375 47.828125 
Q 26.265625 48.1875 28.421875 48.1875 
Q 40.625 48.1875 47.75 41.5 
Q 54.890625 34.8125 54.890625 23.390625 
Q 54.890625 11.625 47.5625 5.09375 
Q 40.234375 -1.421875 26.90625 -1.421875 
Q 22.3125 -1.421875 17.546875 -0.640625 
Q 12.796875 0.140625 7.71875 1.703125 
L 7.71875 11.625 
Q 12.109375 9.234375 16.796875 8.0625 
Q 21.484375 6.890625 26.703125 6.890625 
Q 35.15625 6.890625 40.078125 11.328125 
Q 45.015625 15.765625 45.015625 23.390625 
Q 45.015625 31 40.078125 35.4375 
Q 35.15625 39.890625 26.703125 39.890625 
Q 22.75 39.890625 18.8125 39.015625 
Q 14.890625 38.140625 10.796875 36.28125 
z
" id="DejaVuSans-35"/>
      </defs>
      <g transform="translate(116.283619 322.182437)scale(0.1 -0.1)">
       <use xlink:href="#DejaVuSans-35"/>
       <use x="63.623047" xlink:href="#DejaVuSans-30"/>
       <use x="127.246094" xlink:href="#DejaVuSans-30"/>
      </g>
     </g>
    </g>
    <g id="xtick_3">
     <g id="line2d_3">
      <g>
       <use style="stroke:#000000;stroke-width:0.8;" x="177.822012" xlink:href="#m79d79feb67" y="307.584"/>
      </g>
     </g>
     <g id="text_3">
      <!-- 1000 -->
      <defs>
       <path d="M 12.40625 8.296875 
L 28.515625 8.296875 
L 28.515625 63.921875 
L 10.984375 60.40625 
L 10.984375 69.390625 
L 28.421875 72.90625 
L 38.28125 72.90625 
L 38.28125 8.296875 
L 54.390625 8.296875 
L 54.390625 0 
L 12.40625 0 
z
" id="DejaVuSans-31"/>
      </defs>
      <g transform="translate(165.097012 322.182437)scale(0.1 -0.1)">
       <use xlink:href="#DejaVuSans-31"/>
       <use x="63.623047" xlink:href="#DejaVuSans-30"/>
       <use x="127.246094" xlink:href="#DejaVuSans-30"/>
       <use x="190.869141" xlink:href="#DejaVuSans-30"/>
      </g>
     </g>
    </g>
    <g id="xtick_4">
     <g id="line2d_4">
      <g>
       <use style="stroke:#000000;stroke-width:0.8;" x="229.816654" xlink:href="#m79d79feb67" y="307.584"/>
      </g>
     </g>
     <g id="text_4">
      <!-- 1500 -->
      <g transform="translate(217.091654 322.182437)scale(0.1 -0.1)">
       <use xlink:href="#DejaVuSans-31"/>
       <use x="63.623047" xlink:href="#DejaVuSans-35"/>
       <use x="127.246094" xlink:href="#DejaVuSans-30"/>
       <use x="190.869141" xlink:href="#DejaVuSans-30"/>
      </g>
     </g>
    </g>
    <g id="xtick_5">
     <g id="line2d_5">
      <g>
       <use style="stroke:#000000;stroke-width:0.8;" x="281.811296" xlink:href="#m79d79feb67" y="307.584"/>
      </g>
     </g>
     <g id="text_5">
      <!-- 2000 -->
      <defs>
       <path d="M 19.1875 8.296875 
L 53.609375 8.296875 
L 53.609375 0 
L 7.328125 0 
L 7.328125 8.296875 
Q 12.9375 14.109375 22.625 23.890625 
Q 32.328125 33.6875 34.8125 36.53125 
Q 39.546875 41.84375 41.421875 45.53125 
Q 43.3125 49.21875 43.3125 52.78125 
Q 43.3125 58.59375 39.234375 62.25 
Q 35.15625 65.921875 28.609375 65.921875 
Q 23.96875 65.921875 18.8125 64.3125 
Q 13.671875 62.703125 7.8125 59.421875 
L 7.8125 69.390625 
Q 13.765625 71.78125 18.9375 73 
Q 24.125 74.21875 28.421875 74.21875 
Q 39.75 74.21875 46.484375 68.546875 
Q 53.21875 62.890625 53.21875 53.421875 
Q 53.21875 48.921875 51.53125 44.890625 
Q 49.859375 40.875 45.40625 35.40625 
Q 44.1875 33.984375 37.640625 27.21875 
Q 31.109375 20.453125 19.1875 8.296875 
z
" id="DejaVuSans-32"/>
      </defs>
      <g transform="translate(269.086296 322.182437)scale(0.1 -0.1)">
       <use xlink:href="#DejaVuSans-32"/>
       <use x="63.623047" xlink:href="#DejaVuSans-30"/>
       <use x="127.246094" xlink:href="#DejaVuSans-30"/>
       <use x="190.869141" xlink:href="#DejaVuSans-30"/>
      </g>
     </g>
    </g>
    <g id="xtick_6">
     <g id="line2d_6">
      <g>
       <use style="stroke:#000000;stroke-width:0.8;" x="333.805938" xlink:href="#m79d79feb67" y="307.584"/>
      </g>
     </g>
     <g id="text_6">
      <!-- 2500 -->
      <g transform="translate(321.080938 322.182437)scale(0.1 -0.1)">
       <use xlink:href="#DejaVuSans-32"/>
       <use x="63.623047" xlink:href="#DejaVuSans-35"/>
       <use x="127.246094" xlink:href="#DejaVuSans-30"/>
       <use x="190.869141" xlink:href="#DejaVuSans-30"/>
      </g>
     </g>
    </g>
    <g id="xtick_7">
     <g id="line2d_7">
      <g>
       <use style="stroke:#000000;stroke-width:0.8;" x="385.80058" xlink:href="#m79d79feb67" y="307.584"/>
      </g>
     </g>
     <g id="text_7">
      <!-- 3000 -->
      <defs>
       <path d="M 40.578125 39.3125 
Q 47.65625 37.796875 51.625 33 
Q 55.609375 28.21875 55.609375 21.1875 
Q 55.609375 10.40625 48.1875 4.484375 
Q 40.765625 -1.421875 27.09375 -1.421875 
Q 22.515625 -1.421875 17.65625 -0.515625 
Q 12.796875 0.390625 7.625 2.203125 
L 7.625 11.71875 
Q 11.71875 9.328125 16.59375 8.109375 
Q 21.484375 6.890625 26.8125 6.890625 
Q 36.078125 6.890625 40.9375 10.546875 
Q 45.796875 14.203125 45.796875 21.1875 
Q 45.796875 27.640625 41.28125 31.265625 
Q 36.765625 34.90625 28.71875 34.90625 
L 20.21875 34.90625 
L 20.21875 43.015625 
L 29.109375 43.015625 
Q 36.375 43.015625 40.234375 45.921875 
Q 44.09375 48.828125 44.09375 54.296875 
Q 44.09375 59.90625 40.109375 62.90625 
Q 36.140625 65.921875 28.71875 65.921875 
Q 24.65625 65.921875 20.015625 65.03125 
Q 15.375 64.15625 9.8125 62.3125 
L 9.8125 71.09375 
Q 15.4375 72.65625 20.34375 73.4375 
Q 25.25 74.21875 29.59375 74.21875 
Q 40.828125 74.21875 47.359375 69.109375 
Q 53.90625 64.015625 53.90625 55.328125 
Q 53.90625 49.265625 50.4375 45.09375 
Q 46.96875 40.921875 40.578125 39.3125 
z
" id="DejaVuSans-33"/>
      </defs>
      <g transform="translate(373.07558 322.182437)scale(0.1 -0.1)">
       <use xlink:href="#DejaVuSans-33"/>
       <use x="63.623047" xlink:href="#DejaVuSans-30"/>
       <use x="127.246094" xlink:href="#DejaVuSans-30"/>
       <use x="190.869141" xlink:href="#DejaVuSans-30"/>
      </g>
     </g>
    </g>
    <g id="text_8">
     <!-- Liquid Fuel -->
     <defs>
      <path d="M 9.8125 72.90625 
L 19.671875 72.90625 
L 19.671875 8.296875 
L 55.171875 8.296875 
L 55.171875 0 
L 9.8125 0 
z
" id="DejaVuSans-4c"/>
      <path d="M 9.421875 54.6875 
L 18.40625 54.6875 
L 18.40625 0 
L 9.421875 0 
z
M 9.421875 75.984375 
L 18.40625 75.984375 
L 18.40625 64.59375 
L 9.421875 64.59375 
z
" id="DejaVuSans-69"/>
      <path d="M 14.796875 27.296875 
Q 14.796875 17.390625 18.875 11.75 
Q 22.953125 6.109375 30.078125 6.109375 
Q 37.203125 6.109375 41.296875 11.75 
Q 45.40625 17.390625 45.40625 27.296875 
Q 45.40625 37.203125 41.296875 42.84375 
Q 37.203125 48.484375 30.078125 48.484375 
Q 22.953125 48.484375 18.875 42.84375 
Q 14.796875 37.203125 14.796875 27.296875 
z
M 45.40625 8.203125 
Q 42.578125 3.328125 38.25 0.953125 
Q 33.9375 -1.421875 27.875 -1.421875 
Q 17.96875 -1.421875 11.734375 6.484375 
Q 5.515625 14.40625 5.515625 27.296875 
Q 5.515625 40.1875 11.734375 48.09375 
Q 17.96875 56 27.875 56 
Q 33.9375 56 38.25 53.625 
Q 42.578125 51.265625 45.40625 46.390625 
L 45.40625 54.6875 
L 54.390625 54.6875 
L 54.390625 -20.796875 
L 45.40625 -20.796875 
z
" id="DejaVuSans-71"/>
      <path d="M 8.5 21.578125 
L 8.5 54.6875 
L 17.484375 54.6875 
L 17.484375 21.921875 
Q 17.484375 14.15625 20.5 10.265625 
Q 23.53125 6.390625 29.59375 6.390625 
Q 36.859375 6.390625 41.078125 11.03125 
Q 45.3125 15.671875 45.3125 23.6875 
L 45.3125 54.6875 
L 54.296875 54.6875 
L 54.296875 0 
L 45.3125 0 
L 45.3125 8.40625 
Q 42.046875 3.421875 37.71875 1 
Q 33.40625 -1.421875 27.6875 -1.421875 
Q 18.265625 -1.421875 13.375 4.4375 
Q 8.5 10.296875 8.5 21.578125 
z
M 31.109375 56 
z
" id="DejaVuSans-75"/>
      <path d="M 45.40625 46.390625 
L 45.40625 75.984375 
L 54.390625 75.984375 
L 54.390625 0 
L 45.40625 0 
L 45.40625 8.203125 
Q 42.578125 3.328125 38.25 0.953125 
Q 33.9375 -1.421875 27.875 -1.421875 
Q 17.96875 -1.421875 11.734375 6.484375 
Q 5.515625 14.40625 5.515625 27.296875 
Q 5.515625 40.1875 11.734375 48.09375 
Q 17.96875 56 27.875 56 
Q 33.9375 56 38.25 53.625 
Q 42.578125 51.265625 45.40625 46.390625 
z
M 14.796875 27.296875 
Q 14.796875 17.390625 18.875 11.75 
Q 22.953125 6.109375 30.078125 6.109375 
Q 37.203125 6.109375 41.296875 11.75 
Q 45.40625 17.390625 45.40625 27.296875 
Q 45.40625 37.203125 41.296875 42.84375 
Q 37.203125 48.484375 30.078125 48.484375 
Q 22.953125 48.484375 18.875 42.84375 
Q 14.796875 37.203125 14.796875 27.296875 
z
" id="DejaVuSans-64"/>
      <path id="DejaVuSans-20"/>
      <path d="M 9.8125 72.90625 
L 51.703125 72.90625 
L 51.703125 64.59375 
L 19.671875 64.59375 
L 19.671875 43.109375 
L 48.578125 43.109375 
L 48.578125 34.8125 
L 19.671875 34.8125 
L 19.671875 0 
L 9.8125 0 
z
" id="DejaVuSans-46"/>
      <path d="M 56.203125 29.59375 
L 56.203125 25.203125 
L 14.890625 25.203125 
Q 15.484375 15.921875 20.484375 11.0625 
Q 25.484375 6.203125 34.421875 6.203125 
Q 39.59375 6.203125 44.453125 7.46875 
Q 49.3125 8.734375 54.109375 11.28125 
L 54.109375 2.78125 
Q 49.265625 0.734375 44.1875 -0.34375 
Q 39.109375 -1.421875 33.890625 -1.421875 
Q 20.796875 -1.421875 13.15625 6.1875 
Q 5.515625 13.8125 5.515625 26.8125 
Q 5.515625 40.234375 12.765625 48.109375 
Q 20.015625 56 32.328125 56 
Q 43.359375 56 49.78125 48.890625 
Q 56.203125 41.796875 56.203125 29.59375 
z
M 47.21875 32.234375 
Q 47.125 39.59375 43.09375 43.984375 
Q 39.0625 48.390625 32.421875 48.390625 
Q 24.90625 48.390625 20.390625 44.140625 
Q 15.875 39.890625 15.1875 32.171875 
z
" id="DejaVuSans-65"/>
      <path d="M 9.421875 75.984375 
L 18.40625 75.984375 
L 18.40625 0 
L 9.421875 0 
z
" id="DejaVuSans-6c"/>
     </defs>
     <g transform="translate(208.983437 335.860562)scale(0.1 -0.1)">
      <use xlink:href="#DejaVuSans-4c"/>
      <use x="55.712891" xlink:href="#DejaVuSans-69"/>
      <use x="83.496094" xlink:href="#DejaVuSans-71"/>
      <use x="146.972656" xlink:href="#DejaVuSans-75"/>
      <use x="210.351562" xlink:href="#DejaVuSans-69"/>
      <use x="238.134766" xlink:href="#DejaVuSans-64"/>
      <use x="301.611328" xlink:href="#DejaVuSans-20"/>
      <use x="333.398438" xlink:href="#DejaVuSans-46"/>
      <use x="390.839844" xlink:href="#DejaVuSans-75"/>
      <use x="454.21875" xlink:href="#DejaVuSans-65"/>
      <use x="515.742188" xlink:href="#DejaVuSans-6c"/>
     </g>
    </g>
   </g>
   <g id="matplotlib.axis_2">
    <g id="ytick_1">
     <g id="line2d_8">
      <defs>
       <path d="M 0 0 
L -3.5 0 
" id="m9510e08618" style="stroke:#000000;stroke-width:0.8;"/>
      </defs>
      <g>
       <use style="stroke:#000000;stroke-width:0.8;" x="57.6" xlink:href="#m9510e08618" y="295.677049"/>
      </g>
     </g>
     <g id="text_9">
      <!-- 0 -->
      <g transform="translate(44.2375 299.476268)scale(0.1 -0.1)">
       <use xlink:href="#DejaVuSans-30"/>
      </g>
     </g>
    </g>
    <g id="ytick_2">
     <g id="line2d_9">
      <g>
       <use style="stroke:#000000;stroke-width:0.8;" x="57.6" xlink:href="#m9510e08618" y="264.168844"/>
      </g>
     </g>
     <g id="text_10">
      <!-- 500 -->
      <g transform="translate(31.5125 267.968063)scale(0.1 -0.1)">
       <use xlink:href="#DejaVuSans-35"/>
       <use x="63.623047" xlink:href="#DejaVuSans-30"/>
       <use x="127.246094" xlink:href="#DejaVuSans-30"/>
      </g>
     </g>
    </g>
    <g id="ytick_3">
     <g id="line2d_10">
      <g>
       <use style="stroke:#000000;stroke-width:0.8;" x="57.6" xlink:href="#m9510e08618" y="232.660639"/>
      </g>
     </g>
     <g id="text_11">
      <!-- 1000 -->
      <g transform="translate(25.15 236.459857)scale(0.1 -0.1)">
       <use xlink:href="#DejaVuSans-31"/>
       <use x="63.623047" xlink:href="#DejaVuSans-30"/>
       <use x="127.246094" xlink:href="#DejaVuSans-30"/>
       <use x="190.869141" xlink:href="#DejaVuSans-30"/>
      </g>
     </g>
    </g>
    <g id="ytick_4">
     <g id="line2d_11">
      <g>
       <use style="stroke:#000000;stroke-width:0.8;" x="57.6" xlink:href="#m9510e08618" y="201.152433"/>
      </g>
     </g>
     <g id="text_12">
      <!-- 1500 -->
      <g transform="translate(25.15 204.951652)scale(0.1 -0.1)">
       <use xlink:href="#DejaVuSans-31"/>
       <use x="63.623047" xlink:href="#DejaVuSans-35"/>
       <use x="127.246094" xlink:href="#DejaVuSans-30"/>
       <use x="190.869141" xlink:href="#DejaVuSans-30"/>
      </g>
     </g>
    </g>
    <g id="ytick_5">
     <g id="line2d_12">
      <g>
       <use style="stroke:#000000;stroke-width:0.8;" x="57.6" xlink:href="#m9510e08618" y="169.644228"/>
      </g>
     </g>
     <g id="text_13">
      <!-- 2000 -->
      <g transform="translate(25.15 173.443447)scale(0.1 -0.1)">
       <use xlink:href="#DejaVuSans-32"/>
       <use x="63.623047" xlink:href="#DejaVuSans-30"/>
       <use x="127.246094" xlink:href="#DejaVuSans-30"/>
       <use x="190.869141" xlink:href="#DejaVuSans-30"/>
      </g>
     </g>
    </g>
    <g id="ytick_6">
     <g id="line2d_13">
      <g>
       <use style="stroke:#000000;stroke-width:0.8;" x="57.6" xlink:href="#m9510e08618" y="138.136023"/>
      </g>
     </g>
     <g id="text_14">
      <!-- 2500 -->
      <g transform="translate(25.15 141.935242)scale(0.1 -0.1)">
       <use xlink:href="#DejaVuSans-32"/>
       <use x="63.623047" xlink:href="#DejaVuSans-35"/>
       <use x="127.246094" xlink:href="#DejaVuSans-30"/>
       <use x="190.869141" xlink:href="#DejaVuSans-30"/>
      </g>
     </g>
    </g>
    <g id="ytick_7">
     <g id="line2d_14">
      <g>
       <use style="stroke:#000000;stroke-width:0.8;" x="57.6" xlink:href="#m9510e08618" y="106.627818"/>
      </g>
     </g>
     <g id="text_15">
      <!-- 3000 -->
      <g transform="translate(25.15 110.427036)scale(0.1 -0.1)">
       <use xlink:href="#DejaVuSans-33"/>
       <use x="63.623047" xlink:href="#DejaVuSans-30"/>
       <use x="127.246094" xlink:href="#DejaVuSans-30"/>
       <use x="190.869141" xlink:href="#DejaVuSans-30"/>
      </g>
     </g>
    </g>
    <g id="ytick_8">
     <g id="line2d_15">
      <g>
       <use style="stroke:#000000;stroke-width:0.8;" x="57.6" xlink:href="#m9510e08618" y="75.119612"/>
      </g>
     </g>
     <g id="text_16">
      <!-- 3500 -->
      <g transform="translate(25.15 78.918831)scale(0.1 -0.1)">
       <use xlink:href="#DejaVuSans-33"/>
       <use x="63.623047" xlink:href="#DejaVuSans-35"/>
       <use x="127.246094" xlink:href="#DejaVuSans-30"/>
       <use x="190.869141" xlink:href="#DejaVuSans-30"/>
      </g>
     </g>
    </g>
    <g id="ytick_9">
     <g id="line2d_16">
      <g>
       <use style="stroke:#000000;stroke-width:0.8;" x="57.6" xlink:href="#m9510e08618" y="43.611407"/>
      </g>
     </g>
     <g id="text_17">
      <!-- 4000 -->
      <defs>
       <path d="M 37.796875 64.3125 
L 12.890625 25.390625 
L 37.796875 25.390625 
z
M 35.203125 72.90625 
L 47.609375 72.90625 
L 47.609375 25.390625 
L 58.015625 25.390625 
L 58.015625 17.1875 
L 47.609375 17.1875 
L 47.609375 0 
L 37.796875 0 
L 37.796875 17.1875 
L 4.890625 17.1875 
L 4.890625 26.703125 
z
" id="DejaVuSans-34"/>
      </defs>
      <g transform="translate(25.15 47.410626)scale(0.1 -0.1)">
       <use xlink:href="#DejaVuSans-34"/>
       <use x="63.623047" xlink:href="#DejaVuSans-30"/>
       <use x="127.246094" xlink:href="#DejaVuSans-30"/>
       <use x="190.869141" xlink:href="#DejaVuSans-30"/>
      </g>
     </g>
    </g>
    <g id="text_18">
     <!-- Solid Fuel -->
     <defs>
      <path d="M 53.515625 70.515625 
L 53.515625 60.890625 
Q 47.90625 63.578125 42.921875 64.890625 
Q 37.9375 66.21875 33.296875 66.21875 
Q 25.25 66.21875 20.875 63.09375 
Q 16.5 59.96875 16.5 54.203125 
Q 16.5 49.359375 19.40625 46.890625 
Q 22.3125 44.4375 30.421875 42.921875 
L 36.375 41.703125 
Q 47.40625 39.59375 52.65625 34.296875 
Q 57.90625 29 57.90625 20.125 
Q 57.90625 9.515625 50.796875 4.046875 
Q 43.703125 -1.421875 29.984375 -1.421875 
Q 24.8125 -1.421875 18.96875 -0.25 
Q 13.140625 0.921875 6.890625 3.21875 
L 6.890625 13.375 
Q 12.890625 10.015625 18.65625 8.296875 
Q 24.421875 6.59375 29.984375 6.59375 
Q 38.421875 6.59375 43.015625 9.90625 
Q 47.609375 13.234375 47.609375 19.390625 
Q 47.609375 24.75 44.3125 27.78125 
Q 41.015625 30.8125 33.5 32.328125 
L 27.484375 33.5 
Q 16.453125 35.6875 11.515625 40.375 
Q 6.59375 45.0625 6.59375 53.421875 
Q 6.59375 63.09375 13.40625 68.65625 
Q 20.21875 74.21875 32.171875 74.21875 
Q 37.3125 74.21875 42.625 73.28125 
Q 47.953125 72.359375 53.515625 70.515625 
z
" id="DejaVuSans-53"/>
      <path d="M 30.609375 48.390625 
Q 23.390625 48.390625 19.1875 42.75 
Q 14.984375 37.109375 14.984375 27.296875 
Q 14.984375 17.484375 19.15625 11.84375 
Q 23.34375 6.203125 30.609375 6.203125 
Q 37.796875 6.203125 41.984375 11.859375 
Q 46.1875 17.53125 46.1875 27.296875 
Q 46.1875 37.015625 41.984375 42.703125 
Q 37.796875 48.390625 30.609375 48.390625 
z
M 30.609375 56 
Q 42.328125 56 49.015625 48.375 
Q 55.71875 40.765625 55.71875 27.296875 
Q 55.71875 13.875 49.015625 6.21875 
Q 42.328125 -1.421875 30.609375 -1.421875 
Q 18.84375 -1.421875 12.171875 6.21875 
Q 5.515625 13.875 5.515625 27.296875 
Q 5.515625 40.765625 12.171875 48.375 
Q 18.84375 56 30.609375 56 
z
" id="DejaVuSans-6f"/>
     </defs>
     <g transform="translate(19.070312 198.80925)rotate(-90)scale(0.1 -0.1)">
      <use xlink:href="#DejaVuSans-53"/>
      <use x="63.476562" xlink:href="#DejaVuSans-6f"/>
      <use x="124.658203" xlink:href="#DejaVuSans-6c"/>
      <use x="152.441406" xlink:href="#DejaVuSans-69"/>
      <use x="180.224609" xlink:href="#DejaVuSans-64"/>
      <use x="243.701172" xlink:href="#DejaVuSans-20"/>
      <use x="275.488281" xlink:href="#DejaVuSans-46"/>
      <use x="332.929688" xlink:href="#DejaVuSans-75"/>
      <use x="396.308594" xlink:href="#DejaVuSans-65"/>
      <use x="457.832031" xlink:href="#DejaVuSans-6c"/>
     </g>
    </g>
   </g>
   <g id="line2d_17">
    <defs>
     <path d="M 0 3 
C 0.795609 3 1.55874 2.683901 2.12132 2.12132 
C 2.683901 1.55874 3 0.795609 3 0 
C 3 -0.795609 2.683901 -1.55874 2.12132 -2.12132 
C 1.55874 -2.683901 0.795609 -3 0 -3 
C -0.795609 -3 -1.55874 -2.683901 -2.12132 -2.12132 
C -2.683901 -1.55874 -3 -0.795609 -3 0 
C -3 0.795609 -2.683901 1.55874 -2.12132 2.12132 
C -1.55874 2.683901 -0.795609 3 0 3 
z
" id="m8832be0e98" style="stroke:#ff0000;"/>
    </defs>
    <g clip-path="url(#p39451d4401)">
     <use style="fill:#ff0000;stroke:#ff0000;" x="73.832727" xlink:href="#m8832be0e98" y="295.488"/>
     <use style="fill:#ff0000;stroke:#ff0000;" x="73.832727" xlink:href="#m8832be0e98" y="295.488"/>
     <use style="fill:#ff0000;stroke:#ff0000;" x="73.832727" xlink:href="#m8832be0e98" y="295.488"/>
     <use style="fill:#ff0000;stroke:#ff0000;" x="73.832727" xlink:href="#m8832be0e98" y="295.488"/>
     <use style="fill:#ff0000;stroke:#ff0000;" x="73.832727" xlink:href="#m8832be0e98" y="295.488"/>
     <use style="fill:#ff0000;stroke:#ff0000;" x="73.832727" xlink:href="#m8832be0e98" y="295.488"/>
     <use style="fill:#ff0000;stroke:#ff0000;" x="73.832727" xlink:href="#m8832be0e98" y="295.488"/>
     <use style="fill:#ff0000;stroke:#ff0000;" x="73.832727" xlink:href="#m8832be0e98" y="295.488"/>
     <use style="fill:#ff0000;stroke:#ff0000;" x="73.832727" xlink:href="#m8832be0e98" y="295.488"/>
     <use style="fill:#ff0000;stroke:#ff0000;" x="73.832727" xlink:href="#m8832be0e98" y="295.488"/>
     <use style="fill:#ff0000;stroke:#ff0000;" x="73.832727" xlink:href="#m8832be0e98" y="295.488"/>
     <use style="fill:#ff0000;stroke:#ff0000;" x="73.832727" xlink:href="#m8832be0e98" y="295.488"/>
     <use style="fill:#ff0000;stroke:#ff0000;" x="73.832727" xlink:href="#m8832be0e98" y="295.488"/>
     <use style="fill:#ff0000;stroke:#ff0000;" x="73.832727" xlink:href="#m8832be0e98" y="295.488"/>
     <use style="fill:#ff0000;stroke:#ff0000;" x="73.832727" xlink:href="#m8832be0e98" y="295.488"/>
     <use style="fill:#ff0000;stroke:#ff0000;" x="73.832727" xlink:href="#m8832be0e98" y="295.488"/>
     <use style="fill:#ff0000;stroke:#ff0000;" x="73.832727" xlink:href="#m8832be0e98" y="295.488"/>
     <use style="fill:#ff0000;stroke:#ff0000;" x="73.832727" xlink:href="#m8832be0e98" y="295.488"/>
     <use style="fill:#ff0000;stroke:#ff0000;" x="73.832727" xlink:href="#m8832be0e98" y="295.488"/>
     <use style="fill:#ff0000;stroke:#ff0000;" x="73.832727" xlink:href="#m8832be0e98" y="295.488"/>
     <use style="fill:#ff0000;stroke:#ff0000;" x="73.832727" xlink:href="#m8832be0e98" y="295.424984"/>
     <use style="fill:#ff0000;stroke:#ff0000;" x="73.832727" xlink:href="#m8832be0e98" y="295.424984"/>
     <use style="fill:#ff0000;stroke:#ff0000;" x="73.832727" xlink:href="#m8832be0e98" y="295.424984"/>
     <use style="fill:#ff0000;stroke:#ff0000;" x="73.832727" xlink:href="#m8832be0e98" y="295.424984"/>
     <use style="fill:#ff0000;stroke:#ff0000;" x="73.832727" xlink:href="#m8832be0e98" y="295.424984"/>
     <use style="fill:#ff0000;stroke:#ff0000;" x="73.832727" xlink:href="#m8832be0e98" y="295.424984"/>
     <use style="fill:#ff0000;stroke:#ff0000;" x="73.832727" xlink:href="#m8832be0e98" y="295.424984"/>
     <use style="fill:#ff0000;stroke:#ff0000;" x="73.832727" xlink:href="#m8832be0e98" y="295.424984"/>
     <use style="fill:#ff0000;stroke:#ff0000;" x="73.832727" xlink:href="#m8832be0e98" y="295.424984"/>
     <use style="fill:#ff0000;stroke:#ff0000;" x="73.832727" xlink:href="#m8832be0e98" y="295.424984"/>
     <use style="fill:#ff0000;stroke:#ff0000;" x="73.832727" xlink:href="#m8832be0e98" y="295.361967"/>
     <use style="fill:#ff0000;stroke:#ff0000;" x="73.832727" xlink:href="#m8832be0e98" y="295.361967"/>
     <use style="fill:#ff0000;stroke:#ff0000;" x="73.832727" xlink:href="#m8832be0e98" y="295.361967"/>
     <use style="fill:#ff0000;stroke:#ff0000;" x="73.832727" xlink:href="#m8832be0e98" y="295.361967"/>
     <use style="fill:#ff0000;stroke:#ff0000;" x="73.832727" xlink:href="#m8832be0e98" y="295.361967"/>
     <use style="fill:#ff0000;stroke:#ff0000;" x="73.832727" xlink:href="#m8832be0e98" y="295.361967"/>
     <use style="fill:#ff0000;stroke:#ff0000;" x="73.832727" xlink:href="#m8832be0e98" y="295.361967"/>
     <use style="fill:#ff0000;stroke:#ff0000;" x="73.832727" xlink:href="#m8832be0e98" y="295.361967"/>
     <use style="fill:#ff0000;stroke:#ff0000;" x="73.832727" xlink:href="#m8832be0e98" y="295.361967"/>
     <use style="fill:#ff0000;stroke:#ff0000;" x="73.832727" xlink:href="#m8832be0e98" y="295.361967"/>
     <use style="fill:#ff0000;stroke:#ff0000;" x="73.832727" xlink:href="#m8832be0e98" y="295.298951"/>
     <use style="fill:#ff0000;stroke:#ff0000;" x="73.832727" xlink:href="#m8832be0e98" y="295.298951"/>
     <use style="fill:#ff0000;stroke:#ff0000;" x="73.832727" xlink:href="#m8832be0e98" y="295.298951"/>
     <use style="fill:#ff0000;stroke:#ff0000;" x="73.832727" xlink:href="#m8832be0e98" y="295.298951"/>
     <use style="fill:#ff0000;stroke:#ff0000;" x="73.832727" xlink:href="#m8832be0e98" y="295.298951"/>
     <use style="fill:#ff0000;stroke:#ff0000;" x="73.832727" xlink:href="#m8832be0e98" y="295.298951"/>
     <use style="fill:#ff0000;stroke:#ff0000;" x="73.832727" xlink:href="#m8832be0e98" y="295.235934"/>
     <use style="fill:#ff0000;stroke:#ff0000;" x="73.832727" xlink:href="#m8832be0e98" y="295.235934"/>
     <use style="fill:#ff0000;stroke:#ff0000;" x="73.832727" xlink:href="#m8832be0e98" y="295.235934"/>
     <use style="fill:#ff0000;stroke:#ff0000;" x="73.832727" xlink:href="#m8832be0e98" y="295.172918"/>
     <use style="fill:#ff0000;stroke:#ff0000;" x="73.832727" xlink:href="#m8832be0e98" y="295.172918"/>
     <use style="fill:#ff0000;stroke:#ff0000;" x="73.832727" xlink:href="#m8832be0e98" y="295.046885"/>
     <use style="fill:#ff0000;stroke:#ff0000;" x="73.832727" xlink:href="#m8832be0e98" y="295.109902"/>
     <use style="fill:#ff0000;stroke:#ff0000;" x="73.832727" xlink:href="#m8832be0e98" y="295.109902"/>
     <use style="fill:#ff0000;stroke:#ff0000;" x="73.832727" xlink:href="#m8832be0e98" y="295.109902"/>
     <use style="fill:#ff0000;stroke:#ff0000;" x="73.832727" xlink:href="#m8832be0e98" y="295.046885"/>
     <use style="fill:#ff0000;stroke:#ff0000;" x="73.832727" xlink:href="#m8832be0e98" y="295.046885"/>
     <use style="fill:#ff0000;stroke:#ff0000;" x="73.832727" xlink:href="#m8832be0e98" y="295.046885"/>
     <use style="fill:#ff0000;stroke:#ff0000;" x="73.832727" xlink:href="#m8832be0e98" y="295.046885"/>
     <use style="fill:#ff0000;stroke:#ff0000;" x="73.832727" xlink:href="#m8832be0e98" y="295.046885"/>
     <use style="fill:#ff0000;stroke:#ff0000;" x="73.832727" xlink:href="#m8832be0e98" y="294.983869"/>
     <use style="fill:#ff0000;stroke:#ff0000;" x="73.832727" xlink:href="#m8832be0e98" y="294.983869"/>
     <use style="fill:#ff0000;stroke:#ff0000;" x="73.832727" xlink:href="#m8832be0e98" y="294.983869"/>
     <use style="fill:#ff0000;stroke:#ff0000;" x="73.832727" xlink:href="#m8832be0e98" y="294.983869"/>
     <use style="fill:#ff0000;stroke:#ff0000;" x="73.832727" xlink:href="#m8832be0e98" y="294.920852"/>
     <use style="fill:#ff0000;stroke:#ff0000;" x="73.832727" xlink:href="#m8832be0e98" y="294.857836"/>
     <use style="fill:#ff0000;stroke:#ff0000;" x="73.832727" xlink:href="#m8832be0e98" y="294.794819"/>
     <use style="fill:#ff0000;stroke:#ff0000;" x="73.832727" xlink:href="#m8832be0e98" y="294.794819"/>
     <use style="fill:#ff0000;stroke:#ff0000;" x="73.832727" xlink:href="#m8832be0e98" y="294.794819"/>
     <use style="fill:#ff0000;stroke:#ff0000;" x="73.832727" xlink:href="#m8832be0e98" y="294.794819"/>
     <use style="fill:#ff0000;stroke:#ff0000;" x="73.832727" xlink:href="#m8832be0e98" y="294.794819"/>
     <use style="fill:#ff0000;stroke:#ff0000;" x="73.832727" xlink:href="#m8832be0e98" y="294.731803"/>
     <use style="fill:#ff0000;stroke:#ff0000;" x="73.832727" xlink:href="#m8832be0e98" y="294.668787"/>
     <use style="fill:#ff0000;stroke:#ff0000;" x="73.832727" xlink:href="#m8832be0e98" y="294.668787"/>
     <use style="fill:#ff0000;stroke:#ff0000;" x="73.832727" xlink:href="#m8832be0e98" y="294.60577"/>
     <use style="fill:#ff0000;stroke:#ff0000;" x="73.832727" xlink:href="#m8832be0e98" y="294.60577"/>
     <use style="fill:#ff0000;stroke:#ff0000;" x="73.832727" xlink:href="#m8832be0e98" y="294.542754"/>
     <use style="fill:#ff0000;stroke:#ff0000;" x="73.832727" xlink:href="#m8832be0e98" y="294.542754"/>
     <use style="fill:#ff0000;stroke:#ff0000;" x="73.832727" xlink:href="#m8832be0e98" y="294.542754"/>
     <use style="fill:#ff0000;stroke:#ff0000;" x="73.832727" xlink:href="#m8832be0e98" y="294.164655"/>
     <use style="fill:#ff0000;stroke:#ff0000;" x="73.832727" xlink:href="#m8832be0e98" y="294.227672"/>
     <use style="fill:#ff0000;stroke:#ff0000;" x="73.832727" xlink:href="#m8832be0e98" y="294.227672"/>
     <use style="fill:#ff0000;stroke:#ff0000;" x="73.832727" xlink:href="#m8832be0e98" y="294.164655"/>
     <use style="fill:#ff0000;stroke:#ff0000;" x="73.832727" xlink:href="#m8832be0e98" y="294.164655"/>
     <use style="fill:#ff0000;stroke:#ff0000;" x="73.832727" xlink:href="#m8832be0e98" y="294.101639"/>
     <use style="fill:#ff0000;stroke:#ff0000;" x="73.832727" xlink:href="#m8832be0e98" y="293.849573"/>
     <use style="fill:#ff0000;stroke:#ff0000;" x="73.832727" xlink:href="#m8832be0e98" y="293.849573"/>
     <use style="fill:#ff0000;stroke:#ff0000;" x="73.832727" xlink:href="#m8832be0e98" y="293.786557"/>
     <use style="fill:#ff0000;stroke:#ff0000;" x="73.832727" xlink:href="#m8832be0e98" y="293.723541"/>
     <use style="fill:#ff0000;stroke:#ff0000;" x="73.832727" xlink:href="#m8832be0e98" y="293.597508"/>
     <use style="fill:#ff0000;stroke:#ff0000;" x="73.832727" xlink:href="#m8832be0e98" y="293.534491"/>
     <use style="fill:#ff0000;stroke:#ff0000;" x="73.832727" xlink:href="#m8832be0e98" y="293.408458"/>
     <use style="fill:#ff0000;stroke:#ff0000;" x="73.832727" xlink:href="#m8832be0e98" y="293.345442"/>
     <use style="fill:#ff0000;stroke:#ff0000;" x="73.832727" xlink:href="#m8832be0e98" y="293.219409"/>
     <use style="fill:#ff0000;stroke:#ff0000;" x="73.832727" xlink:href="#m8832be0e98" y="292.967344"/>
     <use style="fill:#ff0000;stroke:#ff0000;" x="73.832727" xlink:href="#m8832be0e98" y="292.967344"/>
     <use style="fill:#ff0000;stroke:#ff0000;" x="73.832727" xlink:href="#m8832be0e98" y="292.778294"/>
     <use style="fill:#ff0000;stroke:#ff0000;" x="73.832727" xlink:href="#m8832be0e98" y="292.715278"/>
     <use style="fill:#ff0000;stroke:#ff0000;" x="73.832727" xlink:href="#m8832be0e98" y="292.526229"/>
     <use style="fill:#ff0000;stroke:#ff0000;" x="73.832727" xlink:href="#m8832be0e98" y="292.274163"/>
     <use style="fill:#ff0000;stroke:#ff0000;" x="73.832727" xlink:href="#m8832be0e98" y="292.274163"/>
     <use style="fill:#ff0000;stroke:#ff0000;" x="73.832727" xlink:href="#m8832be0e98" y="292.085114"/>
     <use style="fill:#ff0000;stroke:#ff0000;" x="73.832727" xlink:href="#m8832be0e98" y="291.959081"/>
     <use style="fill:#ff0000;stroke:#ff0000;" x="73.832727" xlink:href="#m8832be0e98" y="291.328917"/>
     <use style="fill:#ff0000;stroke:#ff0000;" x="73.832727" xlink:href="#m8832be0e98" y="291.202884"/>
     <use style="fill:#ff0000;stroke:#ff0000;" x="73.832727" xlink:href="#m8832be0e98" y="290.887802"/>
     <use style="fill:#ff0000;stroke:#ff0000;" x="73.832727" xlink:href="#m8832be0e98" y="290.824786"/>
     <use style="fill:#ff0000;stroke:#ff0000;" x="73.832727" xlink:href="#m8832be0e98" y="290.761769"/>
     <use style="fill:#ff0000;stroke:#ff0000;" x="73.832727" xlink:href="#m8832be0e98" y="290.446687"/>
     <use style="fill:#ff0000;stroke:#ff0000;" x="73.832727" xlink:href="#m8832be0e98" y="289.942556"/>
     <use style="fill:#ff0000;stroke:#ff0000;" x="73.832727" xlink:href="#m8832be0e98" y="289.69049"/>
     <use style="fill:#ff0000;stroke:#ff0000;" x="73.832727" xlink:href="#m8832be0e98" y="289.627474"/>
     <use style="fill:#ff0000;stroke:#ff0000;" x="73.832727" xlink:href="#m8832be0e98" y="289.186359"/>
     <use style="fill:#ff0000;stroke:#ff0000;" x="73.832727" xlink:href="#m8832be0e98" y="288.619211"/>
     <use style="fill:#ff0000;stroke:#ff0000;" x="73.832727" xlink:href="#m8832be0e98" y="288.178096"/>
     <use style="fill:#ff0000;stroke:#ff0000;" x="73.832727" xlink:href="#m8832be0e98" y="287.989047"/>
     <use style="fill:#ff0000;stroke:#ff0000;" x="73.832727" xlink:href="#m8832be0e98" y="287.484916"/>
     <use style="fill:#ff0000;stroke:#ff0000;" x="73.832727" xlink:href="#m8832be0e98" y="287.23285"/>
     <use style="fill:#ff0000;stroke:#ff0000;" x="73.832727" xlink:href="#m8832be0e98" y="286.728719"/>
     <use style="fill:#ff0000;stroke:#ff0000;" x="73.936717" xlink:href="#m8832be0e98" y="286.476653"/>
     <use style="fill:#ff0000;stroke:#ff0000;" x="73.936717" xlink:href="#m8832be0e98" y="285.846489"/>
     <use style="fill:#ff0000;stroke:#ff0000;" x="73.936717" xlink:href="#m8832be0e98" y="284.77521"/>
     <use style="fill:#ff0000;stroke:#ff0000;" x="73.936717" xlink:href="#m8832be0e98" y="284.145046"/>
     <use style="fill:#ff0000;stroke:#ff0000;" x="73.936717" xlink:href="#m8832be0e98" y="284.77521"/>
     <use style="fill:#ff0000;stroke:#ff0000;" x="73.936717" xlink:href="#m8832be0e98" y="283.89298"/>
     <use style="fill:#ff0000;stroke:#ff0000;" x="73.936717" xlink:href="#m8832be0e98" y="283.703931"/>
     <use style="fill:#ff0000;stroke:#ff0000;" x="74.040706" xlink:href="#m8832be0e98" y="283.577898"/>
     <use style="fill:#ff0000;stroke:#ff0000;" x="74.040706" xlink:href="#m8832be0e98" y="283.451866"/>
     <use style="fill:#ff0000;stroke:#ff0000;" x="74.144695" xlink:href="#m8832be0e98" y="282.632652"/>
     <use style="fill:#ff0000;stroke:#ff0000;" x="74.144695" xlink:href="#m8832be0e98" y="280.994226"/>
     <use style="fill:#ff0000;stroke:#ff0000;" x="74.248684" xlink:href="#m8832be0e98" y="280.616127"/>
     <use style="fill:#ff0000;stroke:#ff0000;" x="74.248684" xlink:href="#m8832be0e98" y="279.796914"/>
     <use style="fill:#ff0000;stroke:#ff0000;" x="74.144695" xlink:href="#m8832be0e98" y="278.725635"/>
     <use style="fill:#ff0000;stroke:#ff0000;" x="74.248684" xlink:href="#m8832be0e98" y="278.599602"/>
     <use style="fill:#ff0000;stroke:#ff0000;" x="74.248684" xlink:href="#m8832be0e98" y="278.473569"/>
     <use style="fill:#ff0000;stroke:#ff0000;" x="74.352674" xlink:href="#m8832be0e98" y="278.347536"/>
     <use style="fill:#ff0000;stroke:#ff0000;" x="74.352674" xlink:href="#m8832be0e98" y="277.591339"/>
     <use style="fill:#ff0000;stroke:#ff0000;" x="74.352674" xlink:href="#m8832be0e98" y="275.700847"/>
     <use style="fill:#ff0000;stroke:#ff0000;" x="74.456663" xlink:href="#m8832be0e98" y="275.637831"/>
     <use style="fill:#ff0000;stroke:#ff0000;" x="74.664642" xlink:href="#m8832be0e98" y="273.936388"/>
     <use style="fill:#ff0000;stroke:#ff0000;" x="74.768631" xlink:href="#m8832be0e98" y="272.991141"/>
     <use style="fill:#ff0000;stroke:#ff0000;" x="74.768631" xlink:href="#m8832be0e98" y="272.802092"/>
     <use style="fill:#ff0000;stroke:#ff0000;" x="74.87262" xlink:href="#m8832be0e98" y="273.117174"/>
     <use style="fill:#ff0000;stroke:#ff0000;" x="74.768631" xlink:href="#m8832be0e98" y="272.234945"/>
     <use style="fill:#ff0000;stroke:#ff0000;" x="74.976609" xlink:href="#m8832be0e98" y="270.9116"/>
     <use style="fill:#ff0000;stroke:#ff0000;" x="75.080599" xlink:href="#m8832be0e98" y="270.155403"/>
     <use style="fill:#ff0000;stroke:#ff0000;" x="75.184588" xlink:href="#m8832be0e98" y="268.895075"/>
     <use style="fill:#ff0000;stroke:#ff0000;" x="75.184588" xlink:href="#m8832be0e98" y="267.382681"/>
     <use style="fill:#ff0000;stroke:#ff0000;" x="75.288577" xlink:href="#m8832be0e98" y="264.735992"/>
     <use style="fill:#ff0000;stroke:#ff0000;" x="75.496556" xlink:href="#m8832be0e98" y="263.223598"/>
     <use style="fill:#ff0000;stroke:#ff0000;" x="75.704534" xlink:href="#m8832be0e98" y="262.215335"/>
     <use style="fill:#ff0000;stroke:#ff0000;" x="75.808524" xlink:href="#m8832be0e98" y="261.459138"/>
     <use style="fill:#ff0000;stroke:#ff0000;" x="75.912513" xlink:href="#m8832be0e98" y="258.308318"/>
     <use style="fill:#ff0000;stroke:#ff0000;" x="76.224481" xlink:href="#m8832be0e98" y="258.056252"/>
     <use style="fill:#ff0000;stroke:#ff0000;" x="76.224481" xlink:href="#m8832be0e98" y="255.598612"/>
     <use style="fill:#ff0000;stroke:#ff0000;" x="76.224481" xlink:href="#m8832be0e98" y="252.82589"/>
     <use style="fill:#ff0000;stroke:#ff0000;" x="76.744427" xlink:href="#m8832be0e98" y="248.414741"/>
     <use style="fill:#ff0000;stroke:#ff0000;" x="76.952406" xlink:href="#m8832be0e98" y="250.683332"/>
     <use style="fill:#ff0000;stroke:#ff0000;" x="77.160384" xlink:href="#m8832be0e98" y="248.603791"/>
     <use style="fill:#ff0000;stroke:#ff0000;" x="77.368363" xlink:href="#m8832be0e98" y="246.650282"/>
     <use style="fill:#ff0000;stroke:#ff0000;" x="77.576342" xlink:href="#m8832be0e98" y="245.768052"/>
     <use style="fill:#ff0000;stroke:#ff0000;" x="77.680331" xlink:href="#m8832be0e98" y="243.121363"/>
     <use style="fill:#ff0000;stroke:#ff0000;" x="78.096288" xlink:href="#m8832be0e98" y="239.277362"/>
     <use style="fill:#ff0000;stroke:#ff0000;" x="78.200277" xlink:href="#m8832be0e98" y="245.263921"/>
     <use style="fill:#ff0000;stroke:#ff0000;" x="78.512245" xlink:href="#m8832be0e98" y="246.272183"/>
     <use style="fill:#ff0000;stroke:#ff0000;" x="78.824213" xlink:href="#m8832be0e98" y="242.617232"/>
     <use style="fill:#ff0000;stroke:#ff0000;" x="79.448149" xlink:href="#m8832be0e98" y="239.529427"/>
     <use style="fill:#ff0000;stroke:#ff0000;" x="79.344159" xlink:href="#m8832be0e98" y="240.663723"/>
     <use style="fill:#ff0000;stroke:#ff0000;" x="80.176074" xlink:href="#m8832be0e98" y="249.359987"/>
     <use style="fill:#ff0000;stroke:#ff0000;" x="81.943891" xlink:href="#m8832be0e98" y="242.554215"/>
     <use style="fill:#ff0000;stroke:#ff0000;" x="82.567827" xlink:href="#m8832be0e98" y="250.998414"/>
     <use style="fill:#ff0000;stroke:#ff0000;" x="83.60772" xlink:href="#m8832be0e98" y="249.044905"/>
     <use style="fill:#ff0000;stroke:#ff0000;" x="85.375538" xlink:href="#m8832be0e98" y="242.428182"/>
     <use style="fill:#ff0000;stroke:#ff0000;" x="85.271549" xlink:href="#m8832be0e98" y="242.99533"/>
     <use style="fill:#ff0000;stroke:#ff0000;" x="85.895484" xlink:href="#m8832be0e98" y="242.617232"/>
     <use style="fill:#ff0000;stroke:#ff0000;" x="86.207452" xlink:href="#m8832be0e98" y="242.365166"/>
     <use style="fill:#ff0000;stroke:#ff0000;" x="87.97527" xlink:href="#m8832be0e98" y="238.647198"/>
     <use style="fill:#ff0000;stroke:#ff0000;" x="88.703195" xlink:href="#m8832be0e98" y="239.592444"/>
     <use style="fill:#ff0000;stroke:#ff0000;" x="90.471013" xlink:href="#m8832be0e98" y="236.000508"/>
     <use style="fill:#ff0000;stroke:#ff0000;" x="89.639098" xlink:href="#m8832be0e98" y="241.356903"/>
     <use style="fill:#ff0000;stroke:#ff0000;" x="89.119152" xlink:href="#m8832be0e98" y="247.847594"/>
     <use style="fill:#ff0000;stroke:#ff0000;" x="88.495216" xlink:href="#m8832be0e98" y="253.140972"/>
     <use style="fill:#ff0000;stroke:#ff0000;" x="89.847077" xlink:href="#m8832be0e98" y="251.061431"/>
     <use style="fill:#ff0000;stroke:#ff0000;" x="90.678991" xlink:href="#m8832be0e98" y="246.839331"/>
     <use style="fill:#ff0000;stroke:#ff0000;" x="92.134841" xlink:href="#m8832be0e98" y="244.57074"/>
     <use style="fill:#ff0000;stroke:#ff0000;" x="93.79867" xlink:href="#m8832be0e98" y="239.403395"/>
     <use style="fill:#ff0000;stroke:#ff0000;" x="96.606381" xlink:href="#m8832be0e98" y="236.378607"/>
     <use style="fill:#ff0000;stroke:#ff0000;" x="96.086434" xlink:href="#m8832be0e98" y="240.222608"/>
     <use style="fill:#ff0000;stroke:#ff0000;" x="96.918348" xlink:href="#m8832be0e98" y="237.827984"/>
     <use style="fill:#ff0000;stroke:#ff0000;" x="97.646273" xlink:href="#m8832be0e98" y="231.58936"/>
     <use style="fill:#ff0000;stroke:#ff0000;" x="98.374198" xlink:href="#m8832be0e98" y="229.950933"/>
     <use style="fill:#ff0000;stroke:#ff0000;" x="96.918348" xlink:href="#m8832be0e98" y="228.690605"/>
     <use style="fill:#ff0000;stroke:#ff0000;" x="98.686166" xlink:href="#m8832be0e98" y="226.863129"/>
     <use style="fill:#ff0000;stroke:#ff0000;" x="102.42978" xlink:href="#m8832be0e98" y="229.698867"/>
     <use style="fill:#ff0000;stroke:#ff0000;" x="102.42978" xlink:href="#m8832be0e98" y="244.003593"/>
     <use style="fill:#ff0000;stroke:#ff0000;" x="104.197598" xlink:href="#m8832be0e98" y="240.53769"/>
     <use style="fill:#ff0000;stroke:#ff0000;" x="107.317277" xlink:href="#m8832be0e98" y="233.16477"/>
     <use style="fill:#ff0000;stroke:#ff0000;" x="111.684827" xlink:href="#m8832be0e98" y="231.715393"/>
     <use style="fill:#ff0000;stroke:#ff0000;" x="111.476848" xlink:href="#m8832be0e98" y="235.181295"/>
     <use style="fill:#ff0000;stroke:#ff0000;" x="117.820195" xlink:href="#m8832be0e98" y="228.24949"/>
     <use style="fill:#ff0000;stroke:#ff0000;" x="123.643594" xlink:href="#m8832be0e98" y="224.531522"/>
     <use style="fill:#ff0000;stroke:#ff0000;" x="126.243327" xlink:href="#m8832be0e98" y="225.161686"/>
     <use style="fill:#ff0000;stroke:#ff0000;" x="129.259016" xlink:href="#m8832be0e98" y="224.783587"/>
     <use style="fill:#ff0000;stroke:#ff0000;" x="131.754759" xlink:href="#m8832be0e98" y="225.350735"/>
     <use style="fill:#ff0000;stroke:#ff0000;" x="138.82603" xlink:href="#m8832be0e98" y="219.553225"/>
     <use style="fill:#ff0000;stroke:#ff0000;" x="144.441451" xlink:href="#m8832be0e98" y="215.457159"/>
     <use style="fill:#ff0000;stroke:#ff0000;" x="148.081076" xlink:href="#m8832be0e98" y="213.188568"/>
     <use style="fill:#ff0000;stroke:#ff0000;" x="149.848894" xlink:href="#m8832be0e98" y="211.487125"/>
     <use style="fill:#ff0000;stroke:#ff0000;" x="155.880273" xlink:href="#m8832be0e98" y="208.58837"/>
     <use style="fill:#ff0000;stroke:#ff0000;" x="162.11963" xlink:href="#m8832be0e98" y="206.82391"/>
     <use style="fill:#ff0000;stroke:#ff0000;" x="167.83904" xlink:href="#m8832be0e98" y="210.667911"/>
     <use style="fill:#ff0000;stroke:#ff0000;" x="175.742226" xlink:href="#m8832be0e98" y="210.541879"/>
     <use style="fill:#ff0000;stroke:#ff0000;" x="183.229454" xlink:href="#m8832be0e98" y="207.70614"/>
     <use style="fill:#ff0000;stroke:#ff0000;" x="192.068543" xlink:href="#m8832be0e98" y="205.2485"/>
     <use style="fill:#ff0000;stroke:#ff0000;" x="200.595665" xlink:href="#m8832be0e98" y="203.67309"/>
     <use style="fill:#ff0000;stroke:#ff0000;" x="211.41055" xlink:href="#m8832be0e98" y="202.538794"/>
     <use style="fill:#ff0000;stroke:#ff0000;" x="221.809479" xlink:href="#m8832be0e98" y="204.429287"/>
     <use style="fill:#ff0000;stroke:#ff0000;" x="235.120107" xlink:href="#m8832be0e98" y="204.429287"/>
     <use style="fill:#ff0000;stroke:#ff0000;" x="247.8068" xlink:href="#m8832be0e98" y="202.034663"/>
     <use style="fill:#ff0000;stroke:#ff0000;" x="265.069021" xlink:href="#m8832be0e98" y="197.623514"/>
     <use style="fill:#ff0000;stroke:#ff0000;" x="276.299864" xlink:href="#m8832be0e98" y="197.434465"/>
     <use style="fill:#ff0000;stroke:#ff0000;" x="287.738685" xlink:href="#m8832be0e98" y="196.363186"/>
     <use style="fill:#ff0000;stroke:#ff0000;" x="306.872713" xlink:href="#m8832be0e98" y="196.048104"/>
     <use style="fill:#ff0000;stroke:#ff0000;" x="307.28867" xlink:href="#m8832be0e98" y="196.174137"/>
     <use style="fill:#ff0000;stroke:#ff0000;" x="295.537881" xlink:href="#m8832be0e98" y="190.250594"/>
     <use style="fill:#ff0000;stroke:#ff0000;" x="314.463931" xlink:href="#m8832be0e98" y="187.918987"/>
     <use style="fill:#ff0000;stroke:#ff0000;" x="323.199031" xlink:href="#m8832be0e98" y="184.453085"/>
     <use style="fill:#ff0000;stroke:#ff0000;" x="322.575095" xlink:href="#m8832be0e98" y="182.688625"/>
     <use style="fill:#ff0000;stroke:#ff0000;" x="338.381466" xlink:href="#m8832be0e98" y="176.765083"/>
     <use style="fill:#ff0000;stroke:#ff0000;" x="325.694774" xlink:href="#m8832be0e98" y="172.984098"/>
     <use style="fill:#ff0000;stroke:#ff0000;" x="311.864199" xlink:href="#m8832be0e98" y="174.622525"/>
     <use style="fill:#ff0000;stroke:#ff0000;" x="302.193196" xlink:href="#m8832be0e98" y="170.148359"/>
     <use style="fill:#ff0000;stroke:#ff0000;" x="300.11341" xlink:href="#m8832be0e98" y="169.95931"/>
     <use style="fill:#ff0000;stroke:#ff0000;" x="302.505163" xlink:href="#m8832be0e98" y="163.720686"/>
     <use style="fill:#ff0000;stroke:#ff0000;" x="301.153303" xlink:href="#m8832be0e98" y="154.709339"/>
     <use style="fill:#ff0000;stroke:#ff0000;" x="312.280156" xlink:href="#m8832be0e98" y="150.739305"/>
     <use style="fill:#ff0000;stroke:#ff0000;" x="313.632017" xlink:href="#m8832be0e98" y="146.706255"/>
     <use style="fill:#ff0000;stroke:#ff0000;" x="324.654881" xlink:href="#m8832be0e98" y="143.555434"/>
     <use style="fill:#ff0000;stroke:#ff0000;" x="329.542377" xlink:href="#m8832be0e98" y="140.845729"/>
     <use style="fill:#ff0000;stroke:#ff0000;" x="332.974024" xlink:href="#m8832be0e98" y="143.240352"/>
     <use style="fill:#ff0000;stroke:#ff0000;" x="344.724813" xlink:href="#m8832be0e98" y="147.903567"/>
     <use style="fill:#ff0000;stroke:#ff0000;" x="334.845831" xlink:href="#m8832be0e98" y="147.14737"/>
     <use style="fill:#ff0000;stroke:#ff0000;" x="336.197691" xlink:href="#m8832be0e98" y="150.865338"/>
     <use style="fill:#ff0000;stroke:#ff0000;" x="338.589445" xlink:href="#m8832be0e98" y="147.084353"/>
     <use style="fill:#ff0000;stroke:#ff0000;" x="340.565241" xlink:href="#m8832be0e98" y="141.790975"/>
     <use style="fill:#ff0000;stroke:#ff0000;" x="346.700609" xlink:href="#m8832be0e98" y="140.089532"/>
     <use style="fill:#ff0000;stroke:#ff0000;" x="354.603795" xlink:href="#m8832be0e98" y="138.451105"/>
     <use style="fill:#ff0000;stroke:#ff0000;" x="361.467088" xlink:href="#m8832be0e98" y="145.004812"/>
     <use style="fill:#ff0000;stroke:#ff0000;" x="358.451398" xlink:href="#m8832be0e98" y="147.462452"/>
     <use style="fill:#ff0000;stroke:#ff0000;" x="368.954316" xlink:href="#m8832be0e98" y="146.517206"/>
     <use style="fill:#ff0000;stroke:#ff0000;" x="369.162295" xlink:href="#m8832be0e98" y="138.640154"/>
     <use style="fill:#ff0000;stroke:#ff0000;" x="368.226391" xlink:href="#m8832be0e98" y="136.812678"/>
     <use style="fill:#ff0000;stroke:#ff0000;" x="381.537019" xlink:href="#m8832be0e98" y="122.823035"/>
     <use style="fill:#ff0000;stroke:#ff0000;" x="391.312012" xlink:href="#m8832be0e98" y="108.707359"/>
     <use style="fill:#ff0000;stroke:#ff0000;" x="393.703766" xlink:href="#m8832be0e98" y="96.734241"/>
     <use style="fill:#ff0000;stroke:#ff0000;" x="395.055626" xlink:href="#m8832be0e98" y="85.265254"/>
     <use style="fill:#ff0000;stroke:#ff0000;" x="394.223712" xlink:href="#m8832be0e98" y="77.388203"/>
     <use style="fill:#ff0000;stroke:#ff0000;" x="398.487273" xlink:href="#m8832be0e98" y="70.645447"/>
     <use style="fill:#ff0000;stroke:#ff0000;" x="391.62398" xlink:href="#m8832be0e98" y="67.557643"/>
     <use style="fill:#ff0000;stroke:#ff0000;" x="397.655358" xlink:href="#m8832be0e98" y="53.568"/>
    </g>
   </g>
   <g id="patch_3">
    <path d="M 57.6 307.584 
L 57.6 41.472 
" style="fill:none;stroke:#000000;stroke-linecap:square;stroke-linejoin:miter;stroke-width:0.8;"/>
   </g>
   <g id="patch_4">
    <path d="M 414.72 307.584 
L 414.72 41.472 
" style="fill:none;stroke:#000000;stroke-linecap:square;stroke-linejoin:miter;stroke-width:0.8;"/>
   </g>
   <g id="patch_5">
    <path d="M 57.6 307.584 
L 414.72 307.584 
" style="fill:none;stroke:#000000;stroke-linecap:square;stroke-linejoin:miter;stroke-width:0.8;"/>
   </g>
   <g id="patch_6">
    <path d="M 57.6 41.472 
L 414.72 41.472 
" style="fill:none;stroke:#000000;stroke-linecap:square;stroke-linejoin:miter;stroke-width:0.8;"/>
   </g>
  </g>
 </g>
 <defs>
  <clipPath id="p39451d4401">
   <rect height="266.112" width="357.12" x="57.6" y="41.472"/>
  </clipPath>
 </defs>
</svg>
